<svg id="Layer_1" data-name="Layer 1" xmlns="http://www.w3.org/2000/svg" width="36" height="36" viewBox="0 0 36 36"><defs><style>.cls-1{fill:#dc4f42;}.cls-2{fill:#fff;}</style></defs><title>btn-share-google-plus</title><path class="cls-1" d="M18,0A18,18,0,1,0,36,18,17.9996,17.9996,0,0,0,18,0Z"/><path class="cls-2" d="M6.21311,17.62485a7.50487,7.50487,0,0,0,4.76243,7.37281,7.40168,7.40168,0,0,0,8.533-2.26663A8.597,8.597,0,0,0,20.862,16.93376c-2.392-.0179-4.78033-.01432-7.1687-.00716-.00358.85222,0,1.70445.00358,2.55667,1.42873.04655,2.861.02507,4.28976.04655-.63022,3.169-4.94146,4.19666-7.22242,2.127a4.80128,4.80128,0,0,1,.2041-7.48381,4.94762,4.94762,0,0,1,5.83308.154,26.69824,26.69824,0,0,0,1.90139-1.96942,7.6,7.6,0,0,0-5.0095-1.85126A7.48242,7.48242,0,0,0,6.21311,17.62485Zm19.30752-2.85029q-.01074,1.06886-.0179,2.1413-1.07423.00537-2.1413.01432v2.13056c.71257.00716,1.42873.01432,2.1413.02148.00716.71257.00716,1.42515.01432,2.13772h2.13414q.00537-1.06886.01432-2.1413c.71615-.00716,1.42873-.01074,2.1413-.0179V16.93018c-.71257-.00716-1.42873-.00716-2.1413-.01432-.00716-.71257-.01074-1.42873-.01432-2.1413Z"/><path class="cls-2" d="M6.21311,17.62485a7.48242,7.48242,0,0,1,7.48023-7.11857,7.6,7.6,0,0,1,5.0095,1.85126A26.69824,26.69824,0,0,1,16.80145,14.327a4.94762,4.94762,0,0,0-5.83308-.154,4.80128,4.80128,0,0,0-.2041,7.48381c2.281,2.06969,6.5922,1.042,7.22242-2.127-1.42873-.02148-2.861,0-4.28976-.04655-.00358-.85222-.00716-1.70445-.00358-2.55667,2.38837-.00716,4.77675-.01074,7.1687.00716A8.597,8.597,0,0,1,19.50852,22.731a7.40168,7.40168,0,0,1-8.533,2.26663A7.50487,7.50487,0,0,1,6.21311,17.62485Z"/><path class="cls-2" d="M25.52063,14.77456h2.13056c.00358.71257.00716,1.42873.01432,2.1413.71257.00716,1.42873.00716,2.1413.01432v2.13056c-.71257.00716-1.42515.01074-2.1413.0179q-.01074,1.07423-.01432,2.1413H25.51705c-.00716-.71257-.00716-1.42515-.01432-2.13772-.71257-.00716-1.42873-.01432-2.1413-.02148V16.93018q1.06886-.01074,2.1413-.01432Q25.5081,15.84163,25.52063,14.77456Z"/></svg>