<svg id="Layer_1" data-name="Layer 1" xmlns="http://www.w3.org/2000/svg" width="48" height="48" viewBox="0 0 48 48"><defs><style>.cls-1{fill:#fff;}.cls-2{fill:#dc4e41;}</style></defs><title>btn-youtube</title><path class="cls-1" d="M24,0A24,24,0,1,0,48,24,23.99947,23.99947,0,0,0,24,0Z"/><path class="cls-2" d="M33.24769,14.9773c-3.69649-.2675-9.242-.2675-9.242-.2675h-.0114s-5.5452,0-9.242.2675a3.77963,3.77963,0,0,0-2.6469,1.1187,5.713,5.713,0,0,0-1.04969,2.6223,39.9364,39.9364,0,0,0-.2643,4.2756v2.0042a39.93454,39.93454,0,0,0,.2643,4.2753,5.71236,5.71236,0,0,0,1.04969,2.6222,4.47874,4.47874,0,0,0,2.9129,1.1291C17.1317,33.2274,24,33.2902,24,33.2902s5.5512-.0083,9.24769-.2755a3.7779,3.7779,0,0,0,2.64691-1.1191,5.717,5.717,0,0,0,1.05031-2.6222,40.024,40.024,0,0,0,.2637-4.2753V22.9939a40.02586,40.02586,0,0,0-.2637-4.2756,5.71761,5.71761,0,0,0-1.05031-2.6223A3.77885,3.77885,0,0,0,33.24769,14.9773ZM21.27289,27.4266l-.00119-7.4224,7.1381,3.7241Z"/></svg>