<svg id="Layer_1" data-name="Layer 1" xmlns="http://www.w3.org/2000/svg" width="36" height="36" viewBox="0 0 36 36"><defs><style>.cls-1{fill:#4dc8f1;}.cls-2{fill:#fff;}</style></defs><title>btn-share-twitter</title><path class="cls-1" d="M18,0A18,18,0,1,0,36,18,17.9996,17.9996,0,0,0,18,0Z"/><path class="cls-2" d="M9.969,24.47775a10.34076,10.34076,0,0,0,15.90847-9.18248A7.37,7.37,0,0,0,27.69172,13.413a7.26417,7.26417,0,0,1-2.08815.5724,3.64165,3.64165,0,0,0,1.59825-2.0115,7.2869,7.2869,0,0,1-2.30842.88282,3.63844,3.63844,0,0,0-6.19612,3.31635,10.3189,10.3189,0,0,1-7.49415-3.79943,3.64039,3.64039,0,0,0,1.1253,4.8549,3.62264,3.62264,0,0,1-1.64753-.455,3.64009,3.64009,0,0,0,2.91645,3.6114,3.63886,3.63886,0,0,1-1.64153.0621,3.63818,3.63818,0,0,0,3.39623,2.52525A7.30739,7.30739,0,0,1,9.969,24.47775Z"/></svg>