<svg id="Layer_1" data-name="Layer 1" xmlns="http://www.w3.org/2000/svg" width="48" height="48" viewBox="0 0 48 48"><defs><style>.cls-1{fill:#fff;}.cls-2{fill:#3e739d;}</style></defs><title>btn-instagram</title><path class="cls-1" d="M24,0A24,24,0,1,0,48,24,23.99947,23.99947,0,0,0,24,0Z"/><path class="cls-2" d="M34.46148,12.5h-20.923A1.03667,1.03667,0,0,0,12.5,13.53852v20.923A1.04127,1.04127,0,0,0,13.53846,35.5h20.923A1.046,1.046,0,0,0,35.5,34.46148v-20.923A1.04132,1.04132,0,0,0,34.46148,12.5Zm-10.466,7.48879a4.01121,4.01121,0,1,1-4.00668,4.00668,4.01231,4.01231,0,0,1,4.00668-4.00668Zm8.62612,12.63286H15.37835V22.56529H17.265A6.88705,6.88705,0,1,0,30.8878,23.99548a6.82649,6.82649,0,0,0-.15457-1.43018h1.88836Zm0-12.93471H28.313V15.37841h4.30859Zm0,0"/></svg>