<svg id="Layer_1" data-name="Layer 1" xmlns="http://www.w3.org/2000/svg" xmlns:xlink="http://www.w3.org/1999/xlink" width="324.00004" height="120" viewBox="0 0 324.00004 120"><defs><symbol id="LC-Logo0-09-17-2017" data-name="LC-Logo0-09-17-2017" viewBox="0 0 111 111"><rect x="1.5" y="1.5" width="108" height="108" fill="#fdbb33"/><path d="M111,111H0V0H111ZM3,108H108V3H3Z"/><circle cx="55.5" cy="55.5" r="48" fill="#804099"/><path d="M55.5,105A49.5,49.5,0,1,1,105,55.5,49.55664,49.55664,0,0,1,55.5,105Zm0-96A46.5,46.5,0,1,0,102,55.5,46.5521,46.5521,0,0,0,55.5,9Z"/><path d="M79.5,31.5a24,24,0,0,0-48,0,24,24,0,0,0,0,48,24,24,0,0,0,48,0,24,24,0,0,0,0-48Z" fill="#fdbb33"/><path d="M55.5,105A25.532,25.532,0,0,1,30.041,80.959a25.5008,25.5008,0,0,1,0-50.918,25.5008,25.5008,0,0,1,50.918,0,25.5008,25.5008,0,0,1,0,50.918A25.532,25.532,0,0,1,55.5,105Zm-24-72a22.5,22.5,0,0,0,0,45H33v1.5a22.5,22.5,0,0,0,45,0V78h1.5a22.5,22.5,0,0,0,0-45H78V31.5a22.5,22.5,0,0,0-45,0V33Z"/><path d="M79.5,37.5a17.895,17.895,0,0,0-7.79388,1.79388,18,18,0,1,0-32.41223,0,18,18,0,1,0,0,32.41223,18,18,0,1,0,32.41223,0A17.99265,17.99265,0,1,0,79.5,37.5Z" fill="#005899"/><path d="M55.5,99A19.52258,19.52258,0,0,1,36,79.5a19.19838,19.19838,0,0,1,.71875-5.21875A19.19838,19.19838,0,0,1,31.5,75a19.5,19.5,0,0,1,0-39,19.19838,19.19838,0,0,1,5.21875.71875A19.19838,19.19838,0,0,1,36,31.5a19.5,19.5,0,0,1,39,0,19.19838,19.19838,0,0,1-.71875,5.21875A19.19838,19.19838,0,0,1,79.5,36a19.5,19.5,0,0,1,0,39,19.19838,19.19838,0,0,1-5.21875-.71875A19.19838,19.19838,0,0,1,75,79.5,19.52258,19.52258,0,0,1,55.5,99ZM38.64258,70.35449l2.00293,2.00293A16.33223,16.33223,0,0,0,39,79.5a16.5,16.5,0,0,0,33,0,16.33223,16.33223,0,0,0-1.64551-7.14258l2.00293-2.00293A16.33223,16.33223,0,0,0,79.5,72a16.5,16.5,0,0,0,0-33,16.33223,16.33223,0,0,0-7.14258,1.64551l-2.00293-2.00293A16.33223,16.33223,0,0,0,72,31.5a16.5,16.5,0,0,0-33,0,16.33223,16.33223,0,0,0,1.64551,7.14258l-2.00293,2.00293A16.33223,16.33223,0,0,0,31.5,39a16.5,16.5,0,0,0,0,33A16.33223,16.33223,0,0,0,38.64258,70.35449Z"/><polygon points="28.206 66 55.5 22.33 82.794 66 28.206 66" fill="#008445"/><path d="M55.5,25.1604,80.08725,64.5H30.91275L55.5,25.1604m0-5.6604-30,48h60l-30-48Z"/><rect x="54" y="49.5" width="3" height="42" fill="#fdbb33"/><rect x="46.5" y="57" width="18" height="3" fill="#fdbb33"/><path d="M57,41.366a3.27978,3.27978,0,0,1,2.25-3,2.47437,2.47437,0,0,0-3.75,0,2.47437,2.47437,0,0,0-3.75,0,3.27978,3.27978,0,0,1,2.25,3c-1.5-1.5-4.5-1.5-6.75,0,3,1.09882,2.25,6,6.75,3.75a2.66429,2.66429,0,0,0,1.5,2.25,2.66429,2.66429,0,0,0,1.5-2.25c4.5,2.25,3.75-2.65118,6.75-3.75C61.5,39.866,58.5,39.866,57,41.366Z" fill="#fff"/><path d="M30.77081,7.5H7.5V30.77081A54.21321,54.21321,0,0,1,30.77081,7.5Z" fill="#d82f27"/><path d="M6,36.94629V6H36.94629L31.459,8.833A53.0742,53.0742,0,0,0,8.833,31.459ZM9,9V25.208A55.16714,55.16714,0,0,1,25.208,9Z"/><path d="M80.22919,7.5H103.5V30.77081A54.21321,54.21321,0,0,0,80.22919,7.5Z" fill="#d82f27"/><path d="M105,36.94629l-2.833-5.4873A53.0742,53.0742,0,0,0,79.541,8.833L74.05371,6H105ZM85.792,9A55.16714,55.16714,0,0,1,102,25.208V9Z"/><path d="M30.77081,103.5H7.5V80.22919A54.21321,54.21321,0,0,0,30.77081,103.5Z" fill="#d82f27"/><path d="M36.94629,105H6V74.05371L8.833,79.541a53.0742,53.0742,0,0,0,22.626,22.626ZM9,102H25.208A55.16714,55.16714,0,0,1,9,85.792Z"/><path d="M80.22919,103.5H103.5V80.22919A54.21321,54.21321,0,0,1,80.22919,103.5Z" fill="#d82f27"/><path d="M105,105H74.05371l5.4873-2.833a53.0742,53.0742,0,0,0,22.626-22.626L105,74.05371Zm-19.208-3H102V85.792A55.16714,55.16714,0,0,1,85.792,102Z"/></symbol></defs><title>little-church-logo</title><path d="M68.84326,6.07324a3.52446,3.52446,0,0,1-1.41895.26807,3.87176,3.87176,0,0,1-1.35205-.22949,3.213,3.213,0,0,1-1.07568-.65039,3.00568,3.00568,0,0,1-.71387-1.00732,3.16713,3.16713,0,0,1-.25879-1.292A3.16637,3.16637,0,0,1,64.28711,1.853a2.91915,2.91915,0,0,1,.72754-.99854,3.25149,3.25149,0,0,1,1.08887-.6333,4.08212,4.08212,0,0,1,2.66406.00439,2.534,2.534,0,0,1,1.04883.65869l-1.03516.98584a1.27842,1.27842,0,0,0-.5625-.4165,1.95264,1.95264,0,0,0-.71387-.13574,1.881,1.881,0,0,0-.73633.14014,1.72238,1.72238,0,0,0-.57568.38672,1.75527,1.75527,0,0,0-.375.582,1.968,1.968,0,0,0-.13379.73535,2.02245,2.02245,0,0,0,.13379.748,1.73379,1.73379,0,0,0,.37061.58252,1.664,1.664,0,0,0,.56641.37793,1.87917,1.87917,0,0,0,.72314.13623,1.75487,1.75487,0,0,0,.79443-.16992,1.523,1.523,0,0,0,.54443-.44238l1.062.95215A2.99832,2.99832,0,0,1,68.84326,6.07324Z" fill="#231f20"/><path d="M75.80859,6.17969V3.66357H73.34521V6.17969H71.81885V.16162h1.52637V2.43945h2.46338V.16162h1.52588V6.17969Z" fill="#231f20"/><path d="M85.12744,4.90039a2.15542,2.15542,0,0,1-.54883.76514,2.55658,2.55658,0,0,1-.86133.49707,3.61344,3.61344,0,0,1-2.24463,0,2.46864,2.46864,0,0,1-.84766-.49707,2.15847,2.15847,0,0,1-.53564-.76514,2.53115,2.53115,0,0,1-.1875-.99023V.16162h1.51758V3.791a1.5957,1.5957,0,0,0,.06689.46777,1.16716,1.16716,0,0,0,.20508.395.95531.95531,0,0,0,.36621.27637,1.52682,1.52682,0,0,0,1.09766,0,.99228.99228,0,0,0,.37012-.27637,1.08,1.08,0,0,0,.20557-.395,1.7181,1.7181,0,0,0,.0625-.46777V.16162h1.52588V3.91016A2.48049,2.48049,0,0,1,85.12744,4.90039Z" fill="#231f20"/><path d="M91.25977,6.17969,89.8877,3.791h-.52V6.17969H87.877V.16162h2.40967A4.38085,4.38085,0,0,1,91.1748.251a2.376,2.376,0,0,1,.77637.30176,1.61565,1.61565,0,0,1,.54932.561,1.68561,1.68561,0,0,1,.20508.8667,1.55119,1.55119,0,0,1-.34814,1.02881,1.904,1.904,0,0,1-.96387.59473l1.65137,2.57568Zm-.0625-4.17334a.58119.58119,0,0,0-.09424-.34424.63833.63833,0,0,0-.24219-.2041,1.07932,1.07932,0,0,0-.332-.09766,2.56756,2.56756,0,0,0-.354-.02588h-.81592V2.7373H90.085a2.56066,2.56066,0,0,0,.38574-.02979,1.27581,1.27581,0,0,0,.35889-.10645.67554.67554,0,0,0,.26465-.2207A.63307.63307,0,0,0,91.19727,2.00635Z" fill="#231f20"/><path d="M99.5083,6.07324a3.52446,3.52446,0,0,1-1.41895.26807,3.87176,3.87176,0,0,1-1.35205-.22949,3.213,3.213,0,0,1-1.07568-.65039,3.00568,3.00568,0,0,1-.71387-1.00732,3.16713,3.16713,0,0,1-.25879-1.292A3.16637,3.16637,0,0,1,94.95215,1.853a2.91915,2.91915,0,0,1,.72754-.99854,3.25149,3.25149,0,0,1,1.08887-.6333,4.08212,4.08212,0,0,1,2.66406.00439,2.534,2.534,0,0,1,1.04883.65869l-1.03516.98584a1.27842,1.27842,0,0,0-.5625-.4165,1.95264,1.95264,0,0,0-.71387-.13574,1.881,1.881,0,0,0-.73633.14014,1.72238,1.72238,0,0,0-.57568.38672,1.75527,1.75527,0,0,0-.375.582,1.968,1.968,0,0,0-.13379.73535,2.02245,2.02245,0,0,0,.13379.748,1.73379,1.73379,0,0,0,.37061.58252,1.664,1.664,0,0,0,.56641.37793,1.87917,1.87917,0,0,0,.72314.13623,1.75483,1.75483,0,0,0,.79443-.16992,1.52293,1.52293,0,0,0,.54444-.44238l1.062.95215A2.99832,2.99832,0,0,1,99.5083,6.07324Z" fill="#231f20"/><path d="M106.47412,6.17969V3.66357h-2.46338V6.17969h-1.52637V.16162h1.52637V2.43945h2.46338V.16162H108V6.17969Z" fill="#231f20"/><path d="M3.31152,1.40283V6.17969H1.78516V1.40283H0V.16162H5.09619V1.40283Z" fill="#231f20"/><path d="M11.0498,6.17969V3.66357H8.58643V6.17969H7.06006V.16162H8.58643V2.43945H11.0498V.16162h1.52588V6.17969Z" fill="#231f20"/><path d="M15.18994,6.17969V.16162h4.24854V1.38574H16.6626V2.5249h2.624V3.689h-2.624V4.93848h2.93652V6.17969Z" fill="#231f20"/><path d="M25.28662,6.17969V.16162h1.53516V4.91309h2.44531v1.2666Z" fill="#231f20"/><path d="M31.24023,6.17969V.16162h1.53516V6.17969Z" fill="#231f20"/><path d="M38.042,1.40283V6.17969H36.51563V1.40283H34.73047V.16162h5.09619V1.40283Z" fill="#231f20"/><path d="M44.7832,1.40283V6.17969H43.25684V1.40283H41.47168V.16162h5.09619V1.40283Z" fill="#231f20"/><path d="M48.53174,6.17969V.16162h1.53516V4.91309h2.44531v1.2666Z" fill="#231f20"/><path d="M54.48438,6.17969V.16162h4.24854V1.38574H55.957V2.5249h2.624V3.689H55.957V4.93848h2.93652V6.17969Z" fill="#231f20"/><path d="M113.82031,17.06055l1.18164-.49072V14.124l-1.18164-.46387V12l6.01807,2.65088v1.48145l-6.01807,2.624Zm4.41162-1.6958-2.06543-.80322v1.58887Z" fill="#231f20"/><path d="M113.82031,23.22314l2.38867-1.37207v-.52h-2.38867V19.84033h6.01807V22.25a4.38084,4.38084,0,0,1-.08936.88818,2.376,2.376,0,0,1-.30176.77637,1.61565,1.61565,0,0,1-.561.54932,1.68561,1.68561,0,0,1-.8667.20508,1.55119,1.55119,0,0,1-1.02881-.34814,1.904,1.904,0,0,1-.59473-.96387l-2.57568,1.65137Zm4.17334-.0625a.58119.58119,0,0,0,.34424-.09424.63833.63833,0,0,0,.2041-.24219,1.07932,1.07932,0,0,0,.09766-.332,2.56755,2.56755,0,0,0,.02588-.354v-.81592H117.2627v.72607a2.56065,2.56065,0,0,0,.02979.38574,1.27626,1.27626,0,0,0,.10645.35889.67554.67554,0,0,0,.2207.26465A.63307.63307,0,0,0,117.99365,23.16064Z" fill="#231f20"/><path d="M116.855,32.74854a3.21805,3.21805,0,0,1-1.30469-.25879,2.967,2.967,0,0,1-1.01172-.71875,3.2311,3.2311,0,0,1-.65039-1.09326,4.21635,4.21635,0,0,1,0-2.74414,3.2395,3.2395,0,0,1,.65039-1.08887,2.96037,2.96037,0,0,1,1.01172-.71875,3.21805,3.21805,0,0,1,1.30469-.25879,3.18182,3.18182,0,0,1,1.30469.25879,2.85353,2.85353,0,0,1,.99023.71875,3.23381,3.23381,0,0,1,.62891,1.08887,4.36612,4.36612,0,0,1,0,2.74414,3.22611,3.22611,0,0,1-.62891,1.09326,2.85976,2.85976,0,0,1-.99023.71875A3.18182,3.18182,0,0,1,116.855,32.74854Zm0-1.6333a1.98784,1.98784,0,0,0,.731-.13379,1.6781,1.6781,0,0,0,.96484-.94189,1.88987,1.88987,0,0,0,.14014-.73633,1.85923,1.85923,0,0,0-.14014-.73193,1.78014,1.78014,0,0,0-.38281-.5708,1.64589,1.64589,0,0,0-.582-.37061,2.15611,2.15611,0,0,0-1.4834.00439,1.771,1.771,0,0,0-.59082.37061,1.69527,1.69527,0,0,0-.38672.56641,1.98151,1.98151,0,0,0,0,1.46387,1.70591,1.70591,0,0,0,.97754.94629A2.0673,2.0673,0,0,0,116.855,31.11523Z" fill="#231f20"/><path d="M115.09961,39.41016a2.15542,2.15542,0,0,1-.76514-.54883A2.55658,2.55658,0,0,1,113.8374,38a3.61344,3.61344,0,0,1,0-2.24463,2.46864,2.46864,0,0,1,.49707-.84766,2.15847,2.15847,0,0,1,.76514-.53564,2.53115,2.53115,0,0,1,.99023-.1875h3.74854v1.51758H116.209a1.5957,1.5957,0,0,0-.46777.06689,1.16716,1.16716,0,0,0-.395.20508.95531.95531,0,0,0-.27637.36621,1.52682,1.52682,0,0,0,0,1.09766.99228.99228,0,0,0,.27637.37012,1.08,1.08,0,0,0,.395.20557,1.7181,1.7181,0,0,0,.46777.0625h3.62939v1.52588h-3.74854A2.48049,2.48049,0,0,1,115.09961,39.41016Z" fill="#231f20"/><path d="M113.82031,45.38916l3.93555-2.54395v-.02686l-3.93555.03613V41.37256h6.01807v1.74072l-3.92725,2.53467v.02686l3.92725-.03613v1.48193h-6.01807Z" fill="#231f20"/><path d="M116.84619,54.84473a2.84957,2.84957,0,0,1-1.36426-.30762,2.78712,2.78712,0,0,1-.94336-.8125,3.45057,3.45057,0,0,1-.54395-1.1377,4.82494,4.82494,0,0,1-.17432-1.28516V48.94531h6.01807v2.28516a5.9189,5.9189,0,0,1-.14893,1.3208,3.40037,3.40037,0,0,1-.49268,1.16016,2.5625,2.5625,0,0,1-.92236.82129A2.97739,2.97739,0,0,1,116.84619,54.84473Zm0-1.58838a1.824,1.824,0,0,0,.8457-.17432,1.43827,1.43827,0,0,0,.53564-.46387,1.89843,1.89843,0,0,0,.28467-.66064,3.4014,3.4014,0,0,0,.085-.76318V50.436h-3.519v.72266a3.43427,3.43427,0,0,0,.08936.79,1.90852,1.90852,0,0,0,.29346.66943,1.46517,1.46517,0,0,0,.54395.46387A1.82983,1.82983,0,0,0,116.84619,53.25635Z" fill="#231f20"/><path d="M113.92676,84.749a3.52446,3.52446,0,0,1-.26807-1.41895,3.87176,3.87176,0,0,1,.22949-1.35205,3.213,3.213,0,0,1,.65039-1.07568,3.00568,3.00568,0,0,1,1.00732-.71387,3.37093,3.37093,0,0,1,2.60107.00439,2.91915,2.91915,0,0,1,.99854.72754,3.25149,3.25149,0,0,1,.6333,1.08887,4.08212,4.08212,0,0,1-.00439,2.66406,2.534,2.534,0,0,1-.65869,1.04883l-.98584-1.03516a1.27842,1.27842,0,0,0,.4165-.5625,1.95264,1.95264,0,0,0,.13574-.71387,1.881,1.881,0,0,0-.14014-.73633,1.72238,1.72238,0,0,0-.38672-.57568,1.75527,1.75527,0,0,0-.582-.375,1.968,1.968,0,0,0-.73535-.13379,2.02245,2.02245,0,0,0-.748.13379,1.73379,1.73379,0,0,0-.58252.37061,1.664,1.664,0,0,0-.37793.56641,1.87917,1.87917,0,0,0-.13623.72314,1.75487,1.75487,0,0,0,.16992.79443,1.523,1.523,0,0,0,.44238.54443l-.95215,1.062A2.99832,2.99832,0,0,1,113.92676,84.749Z" fill="#231f20"/><path d="M116.855,93.35352a3.21805,3.21805,0,0,1-1.30469-.25879,2.967,2.967,0,0,1-1.01172-.71875,3.2311,3.2311,0,0,1-.65039-1.09326,4.21635,4.21635,0,0,1,0-2.74414,3.2395,3.2395,0,0,1,.65039-1.08887,2.96037,2.96037,0,0,1,1.01172-.71875,3.21805,3.21805,0,0,1,1.30469-.25879,3.18182,3.18182,0,0,1,1.30469.25879,2.85353,2.85353,0,0,1,.99023.71875,3.23381,3.23381,0,0,1,.62891,1.08887,4.36612,4.36612,0,0,1,0,2.74414,3.22611,3.22611,0,0,1-.62891,1.09326,2.85976,2.85976,0,0,1-.99023.71875A3.18182,3.18182,0,0,1,116.855,93.35352Zm0-1.6333a1.98784,1.98784,0,0,0,.731-.13379,1.6781,1.6781,0,0,0,.96484-.94189,1.88987,1.88987,0,0,0,.14014-.73633,1.85923,1.85923,0,0,0-.14014-.73193,1.78014,1.78014,0,0,0-.38281-.5708,1.64589,1.64589,0,0,0-.582-.37061,2.15611,2.15611,0,0,0-1.4834.00439,1.771,1.771,0,0,0-.59082.37061,1.69527,1.69527,0,0,0-.38672.56641,1.98151,1.98151,0,0,0,0,1.46387,1.70591,1.70591,0,0,0,.97754.94629A2.0673,2.0673,0,0,0,116.855,91.72021Z" fill="#231f20"/><path d="M113.82031,98.24072l2.38867-1.37207v-.52h-2.38867V94.85791h6.01807v2.40967a4.38084,4.38084,0,0,1-.08936.88818,2.376,2.376,0,0,1-.30176.77637,1.61565,1.61565,0,0,1-.561.54932,1.68561,1.68561,0,0,1-.8667.20508,1.55119,1.55119,0,0,1-1.02881-.34814,1.904,1.904,0,0,1-.59473-.96387l-2.57568,1.65137Zm4.17334-.0625a.58119.58119,0,0,0,.34424-.09424.63833.63833,0,0,0,.2041-.24219,1.07932,1.07932,0,0,0,.09766-.332,2.56755,2.56755,0,0,0,.02588-.354v-.81592H117.2627v.72607a2.56065,2.56065,0,0,0,.02979.38574,1.27626,1.27626,0,0,0,.10645.35889.67554.67554,0,0,0,.2207.26465A.63307.63307,0,0,0,117.99365,98.17822Z" fill="#231f20"/><path d="M113.82031,105.2876l3.93555-2.54395v-.02686l-3.93555.03613V101.271h6.01807v1.74072l-3.92725,2.53467v.02686l3.92725-.03613V107.019h-6.01807Z" fill="#231f20"/><path d="M113.82031,108.84424h6.01807v4.24854h-1.22412v-2.77588H117.4751v2.624H116.311v-2.624h-1.24951v2.93652h-1.24121Z" fill="#231f20"/><path d="M113.82031,118.21484l2.38867-1.37207v-.52h-2.38867V114.832h6.01807v2.40967a4.38084,4.38084,0,0,1-.08936.88818,2.376,2.376,0,0,1-.30176.77637,1.61565,1.61565,0,0,1-.561.54932,1.68561,1.68561,0,0,1-.8667.20508,1.55127,1.55127,0,0,1-1.02881-.34813,1.90409,1.90409,0,0,1-.59473-.96388L113.82031,120Zm4.17334-.0625a.58119.58119,0,0,0,.34424-.09424.63833.63833,0,0,0,.2041-.24219,1.07932,1.07932,0,0,0,.09766-.332,2.56755,2.56755,0,0,0,.02588-.354V116.314H117.2627V117.04a2.56065,2.56065,0,0,0,.02979.38574,1.27626,1.27626,0,0,0,.10645.35889.67554.67554,0,0,0,.2207.26465A.63307.63307,0,0,0,117.99365,118.15234Z" fill="#231f20"/><path d="M118.59717,61.51152h-4.77686V59.98516h4.77686V58.2h1.24121v5.09619h-1.24121Z" fill="#231f20"/><path d="M113.82031,68.46465h2.51611V66.00127h-2.51611V64.4749h6.01807v1.52637h-2.27783v2.46338h2.27783v1.52588h-6.01807Z" fill="#231f20"/><path d="M113.82031,71.81914h6.01807v4.24854h-1.22412V73.2918H117.4751v2.624H116.311v-2.624h-1.24951v2.93652h-1.24121Z" fill="#231f20"/><path d="M151.67756,43.408V55.03889h-3.53787V43.408H144v-3.0214h11.81724V43.408Z" fill="#010101"/><path d="M164.21787,55.03889V49.45138a5.29218,5.29218,0,0,0-.06175-.828,1.98267,1.98267,0,0,0-.238-.69332,1.33829,1.33829,0,0,0-.466-.47606,1.42134,1.42134,0,0,0-.7444-.17571,1.60909,1.60909,0,0,0-1.36642.631,2.51978,2.51978,0,0,0-.47606,1.56291v5.56674h-3.393V39.39353h3.393v6.64292h.04154a3.238,3.238,0,0,1,1.11829-1.10706,3.36311,3.36311,0,0,1,1.84136-.48616,3.79739,3.79739,0,0,1,1.7695.3722,3.39,3.39,0,0,1,1.15871.96222,3.80314,3.80314,0,0,1,.64223,1.35575,6.1753,6.1753,0,0,1,.19649,1.53147v6.374Z" fill="#010101"/><path d="M180.26013,50.01v.41374a3.65165,3.65165,0,0,1-.02021.39353h-7.471a1.79228,1.79228,0,0,0,.25824.78651,2.22845,2.22845,0,0,0,.55914.61023,2.74091,2.74091,0,0,0,1.64487.54848,2.85462,2.85462,0,0,0,1.36642-.30034,2.704,2.704,0,0,0,.91057-.77584l2.359,1.48993a4.77524,4.77524,0,0,1-1.91434,1.62466,6.33655,6.33655,0,0,1-2.76316.56925,6.61281,6.61281,0,0,1-2.19391-.3621,5.32041,5.32041,0,0,1-1.80992-1.05541,4.87936,4.87936,0,0,1-1.22158-1.70775,5.7169,5.7169,0,0,1-.44462-2.31741,5.80373,5.80373,0,0,1,.43452-2.2871,5.15648,5.15648,0,0,1,1.18-1.73806,5.25264,5.25264,0,0,1,1.75827-1.10762,6.02924,6.02924,0,0,1,2.19391-.393,5.5529,5.5529,0,0,1,2.09061.38287,4.55982,4.55982,0,0,1,1.63477,1.10706,5.12206,5.12206,0,0,1,1.06552,1.75939A6.77909,6.77909,0,0,1,180.26013,50.01Zm-3.12469-1.30355a2.035,2.035,0,0,0-.5075-1.38663,1.91475,1.91475,0,0,0-1.52136-.57935,2.58362,2.58362,0,0,0-.91057.15494,2.37955,2.37955,0,0,0-.72419.42441,2.106,2.106,0,0,0-.49627.631,1.836,1.836,0,0,0-.20659.75563Z" fill="#010101"/><path d="M198.33349,54.78009a7.85028,7.85028,0,0,1-3.29086.65177,8.5817,8.5817,0,0,1-3.13592-.55858A7.2353,7.2353,0,0,1,187.758,50.838a8.5795,8.5795,0,0,1,.01011-6.333,7.07885,7.07885,0,0,1,1.68641-2.43138,7.483,7.483,0,0,1,2.52513-1.54214,9.0522,9.0522,0,0,1,6.17753.01067,5.84123,5.84123,0,0,1,2.43194,1.60389l-2.4005,2.4005a2.96822,2.96822,0,0,0-1.30467-1.01387,4.32583,4.32583,0,0,0-1.655-.33122,4.20014,4.20014,0,0,0-1.70775.34132,4.01514,4.01514,0,0,0-1.335.94145,4.28158,4.28158,0,0,0-.869,1.41807,5.0096,5.0096,0,0,0-.30989,1.78971,5.15391,5.15391,0,0,0,.30989,1.82115,4.22029,4.22029,0,0,0,.85893,1.41751,3.86032,3.86032,0,0,0,1.31365.92124,4.18451,4.18451,0,0,0,1.67631.33122,3.89882,3.89882,0,0,0,1.84248-.41431,3.57149,3.57149,0,0,0,1.262-1.07562l2.46338,2.31741A6.98761,6.98761,0,0,1,198.33349,54.78009Z" fill="#010101"/><path d="M209.25925,55.03889V49.45138a5.29218,5.29218,0,0,0-.06175-.828,1.98267,1.98267,0,0,0-.238-.69332,1.33829,1.33829,0,0,0-.466-.47606,1.42134,1.42134,0,0,0-.7444-.17571,1.60909,1.60909,0,0,0-1.36642.631,2.51978,2.51978,0,0,0-.47606,1.56291v5.56674h-3.393V39.39353h3.393v6.64292h.04154a3.238,3.238,0,0,1,1.11829-1.10706,3.36311,3.36311,0,0,1,1.84136-.48616,3.79739,3.79739,0,0,1,1.7695.3722,3.39,3.39,0,0,1,1.15871.96222,3.80314,3.80314,0,0,1,.64223,1.35575,6.1753,6.1753,0,0,1,.19649,1.53147v6.374Z" fill="#010101"/><path d="M222.44179,55.03889V53.61071h-.04154a2.893,2.893,0,0,1-.48616.66244,3.05957,3.05957,0,0,1-.70286.53781,4.29434,4.29434,0,0,1-.89036.37276,3.57155,3.57155,0,0,1-1.024.14484,3.74867,3.74867,0,0,1-1.74929-.3722,3.38507,3.38507,0,0,1-1.15871-.96278,3.7774,3.7774,0,0,1-.64111-1.34509,6.08153,6.08153,0,0,1-.19761-1.54157v-6.374h3.41549v5.58751a5.29218,5.29218,0,0,0,.06175.828,2.05876,2.05876,0,0,0,.238.70342,1.3065,1.3065,0,0,0,.466.48616,1.4615,1.4615,0,0,0,.76573.17628,1.55184,1.55184,0,0,0,1.35519-.66244,2.62526,2.62526,0,0,0,.466-1.55224V44.73291h3.39416v10.306Z" fill="#010101"/><path d="M235.45816,47.52638a2.70181,2.70181,0,0,0-.44462-.08252c-.14484-.01347-.28631-.02077-.42441-.02077a2.43359,2.43359,0,0,0-1.1486.24757,2.34118,2.34118,0,0,0-.7444.59844,2.27494,2.27494,0,0,0-.4042.76405,2.54651,2.54651,0,0,0-.12463.72195v5.28379h-3.393V44.74526h3.26953v1.48993h.04154a3.358,3.358,0,0,1,1.11716-1.29176,2.87783,2.87783,0,0,1,1.67631-.5002,3.9603,3.9603,0,0,1,.4042.02021,1.58113,1.58113,0,0,1,.32.06231Z" fill="#010101"/><path d="M244.25984,48.06475a2.0518,2.0518,0,0,0-.78594-.60013A2.41417,2.41417,0,0,0,242.46,47.2367a2.14634,2.14634,0,0,0-.97345.21726,2.35661,2.35661,0,0,0-.7444.57992,2.69662,2.69662,0,0,0-.48616.83815,2.88622,2.88622,0,0,0-.17628,1.01387,3.07184,3.07184,0,0,0,.165,1.01387,2.47769,2.47769,0,0,0,.48729.83815,2.29665,2.29665,0,0,0,.76573.56925,2.34935,2.34935,0,0,0,1.00376.20715,2.80623,2.80623,0,0,0,1.024-.197,1.95934,1.95934,0,0,0,.81738-.56869l1.8829,2.2972a4.41975,4.41975,0,0,1-1.655.97233,6.521,6.521,0,0,1-2.15237.352,6.81746,6.81746,0,0,1-2.28036-.37276,5.284,5.284,0,0,1-1.838-1.08629,5.10248,5.10248,0,0,1-1.22944-1.728,6.07468,6.07468,0,0,1,0-4.57364,5.10248,5.10248,0,0,1,1.22944-1.728,5.42188,5.42188,0,0,1,1.838-1.097,6.59241,6.59241,0,0,1,2.259-.38287,5.99178,5.99178,0,0,1,1.10706.1033,7.44208,7.44208,0,0,1,1.05653.27957,4.85332,4.85332,0,0,1,.93078.43452,3.90669,3.90669,0,0,1,.7343.56925Z" fill="#010101"/><path d="M254.88155,55.03889V49.45138a5.29218,5.29218,0,0,0-.06175-.828,1.98267,1.98267,0,0,0-.238-.69332,1.33829,1.33829,0,0,0-.466-.47606,1.42134,1.42134,0,0,0-.7444-.17571,1.60909,1.60909,0,0,0-1.36642.631,2.51978,2.51978,0,0,0-.47606,1.56291v5.56674h-3.393V39.39353h3.393v6.64292h.04154a3.238,3.238,0,0,1,1.11829-1.10706,3.36311,3.36311,0,0,1,1.84136-.48616,3.79739,3.79739,0,0,1,1.7695.3722,3.39,3.39,0,0,1,1.15871.96222,3.80314,3.80314,0,0,1,.64223,1.35575,6.1753,6.1753,0,0,1,.19649,1.53147v6.374Z" fill="#010101"/><path d="M276.44448,49.84435a5.57929,5.57929,0,0,1-.45585,2.2871,5.124,5.124,0,0,1-1.24179,1.73806,5.66654,5.66654,0,0,1-1.82115,1.10706,6.39693,6.39693,0,0,1-4.41813,0,5.52518,5.52518,0,0,1-1.82115-1.10706,5.19165,5.19165,0,0,1-1.23169-1.73806A5.579,5.579,0,0,1,265,49.84435a5.5058,5.5058,0,0,1,.45473-2.27643,5.10856,5.10856,0,0,1,1.23169-1.71785,5.36241,5.36241,0,0,1,1.82115-1.07618,6.74163,6.74163,0,0,1,4.41813,0,5.49453,5.49453,0,0,1,1.82115,1.07618,5.043,5.043,0,0,1,1.24179,1.71785A5.50606,5.50606,0,0,1,276.44448,49.84435Zm-3.27065,0a2.94614,2.94614,0,0,0-.165-.97233,2.56783,2.56783,0,0,0-.47606-.83815,2.42634,2.42634,0,0,0-.76573-.59,2.37761,2.37761,0,0,0-2.86645.59,2.52115,2.52115,0,0,0-.45473.83815,3.13008,3.13008,0,0,0,0,1.94521,2.66678,2.66678,0,0,0,.46483.85893,2.29761,2.29761,0,0,0,.76573.61023,2.56013,2.56013,0,0,0,2.11195,0,2.29761,2.29761,0,0,0,.76573-.61023,2.66678,2.66678,0,0,0,.46483-.85893A3.12368,3.12368,0,0,0,273.17383,49.84435Z" fill="#010101"/><path d="M285.40537,41.89733a2.95627,2.95627,0,0,0-.43452-.1033,3.02089,3.02089,0,0,0-.49627-.04154,1.54,1.54,0,0,0-.76573.16561,1.21812,1.21812,0,0,0-.45585.44518,1.87493,1.87493,0,0,0-.22792.631,4.14176,4.14176,0,0,0-.06175.704v1.03464h2.2972v2.52457h-2.2972v7.78142h-3.39416V47.25747h-1.8829V44.73291h1.8829v-.99366a7.699,7.699,0,0,1,.20771-1.81048,3.89435,3.89435,0,0,1,.71409-1.5107,3.47581,3.47581,0,0,1,1.3653-1.0352A5.27333,5.27333,0,0,1,283.99853,39a7.14206,7.14206,0,0,1,.85893.05221,4.81253,4.81253,0,0,1,.77584.15494Z" fill="#010101"/><path d="M296.46817,47.25747V51.2046a1.77469,1.77469,0,0,0,.27845,1.09078,1.19692,1.19692,0,0,0,1.00376.36378,3.61619,3.61619,0,0,0,.52771-.04154,1.82067,1.82067,0,0,0,.466-.12407l.04154,2.483a5.52913,5.52913,0,0,1-.89036.21726,6.27023,6.27023,0,0,1-1.07562.09319,5.05428,5.05428,0,0,1-1.73806-.25936,2.6902,2.6902,0,0,1-1.12839-.74665,2.93567,2.93567,0,0,1-.61079-1.16208,5.6712,5.6712,0,0,1-.18638-1.504v-4.3575h-1.655V44.73291h1.63477V42.022h3.33241v2.71095h2.42071v2.52457Z" fill="#010101"/><path d="M307.95779,55.03889V49.45138a5.29218,5.29218,0,0,0-.06175-.828,1.98267,1.98267,0,0,0-.238-.69332,1.33829,1.33829,0,0,0-.466-.47606,1.42134,1.42134,0,0,0-.7444-.17571,1.60909,1.60909,0,0,0-1.36642.631,2.51978,2.51978,0,0,0-.47606,1.56291v5.56674h-3.393V39.39353h3.393v6.64292h.04154a3.238,3.238,0,0,1,1.11829-1.10706,3.36311,3.36311,0,0,1,1.84136-.48616,3.79739,3.79739,0,0,1,1.7695.3722,3.39,3.39,0,0,1,1.15871.96222,3.80314,3.80314,0,0,1,.64223,1.35575,6.1753,6.1753,0,0,1,.19649,1.53147v6.374Z" fill="#010101"/><path d="M324,50.01v.41374a3.65163,3.65163,0,0,1-.02021.39353h-7.471a1.79228,1.79228,0,0,0,.25824.78651,2.22845,2.22845,0,0,0,.55914.61023,2.74091,2.74091,0,0,0,1.64487.54848,2.85462,2.85462,0,0,0,1.36642-.30034,2.704,2.704,0,0,0,.91057-.77584l2.359,1.48993a4.77524,4.77524,0,0,1-1.91434,1.62466,6.33655,6.33655,0,0,1-2.76316.56925,6.61281,6.61281,0,0,1-2.19391-.3621,5.32041,5.32041,0,0,1-1.80992-1.05541,4.87936,4.87936,0,0,1-1.22158-1.70775,5.7169,5.7169,0,0,1-.44462-2.31741,5.80373,5.80373,0,0,1,.43452-2.2871,5.15648,5.15648,0,0,1,1.18-1.73806,5.25263,5.25263,0,0,1,1.75827-1.10762,6.02924,6.02924,0,0,1,2.19391-.393,5.5529,5.5529,0,0,1,2.09061.38287,4.55982,4.55982,0,0,1,1.63477,1.10706,5.12206,5.12206,0,0,1,1.06552,1.75939A6.77909,6.77909,0,0,1,324,50.01Zm-3.12469-1.30355a2.035,2.035,0,0,0-.5075-1.38663,1.91475,1.91475,0,0,0-1.52136-.57935,2.58362,2.58362,0,0,0-.91057.15494,2.37955,2.37955,0,0,0-.72419.42441,2.106,2.106,0,0,0-.49627.631,1.836,1.836,0,0,0-.20659.75563Z" fill="#010101"/><path d="M151.67756,66.40253V78.03339h-3.53787V66.40253H144v-3.0214h11.81724v3.0214Z" fill="#010101"/><path d="M162.62465,70.52088a2.70181,2.70181,0,0,0-.44462-.08252c-.14484-.01347-.28631-.02077-.42441-.02077a2.43359,2.43359,0,0,0-1.1486.24757,2.34118,2.34118,0,0,0-.7444.59844,2.27494,2.27494,0,0,0-.4042.76405,2.54651,2.54651,0,0,0-.12463.72195v5.28379h-3.393V67.73976h3.26953v1.48993h.04154a3.358,3.358,0,0,1,1.11716-1.29176,2.87783,2.87783,0,0,1,1.67631-.5002,3.9603,3.9603,0,0,1,.4042.02021,1.58113,1.58113,0,0,1,.32.06231Z" fill="#010101"/><path d="M164.48981,69.13425a5.93427,5.93427,0,0,1,2.12093-1.30355,7.27069,7.27069,0,0,1,2.47348-.43452,6.6271,6.6271,0,0,1,2.204.32055,3.291,3.291,0,0,1,1.45849.99366,4.23856,4.23856,0,0,1,.81738,1.69708,10.00327,10.00327,0,0,1,.25824,2.43138v5.19453H170.719v-1.097h-.06288a2.55543,2.55543,0,0,1-1.189.99366,4.24521,4.24521,0,0,1-1.72908.35143,5.26876,5.26876,0,0,1-1.28221-.16561,3.75467,3.75467,0,0,1-1.21148-.53781,2.90735,2.90735,0,0,1-.89935-.9931,3.06678,3.06678,0,0,1-.35255-1.53147,2.59794,2.59794,0,0,1,.61079-1.80094,4.00136,4.00136,0,0,1,1.573-1.05541,8.32257,8.32257,0,0,1,2.14226-.49627,21.84725,21.84725,0,0,1,2.29608-.12463v-.165a1.2639,1.2639,0,0,0-.53781-1.12839,2.32171,2.32171,0,0,0-1.32376-.3621,3.30579,3.30579,0,0,0-1.39786.31045,4.47986,4.47986,0,0,0-1.1486.745Zm6.22917,4.40859h-.43452q-.55914,0-1.12839.05165a4.62069,4.62069,0,0,0-1.01387.19649,1.85767,1.85767,0,0,0-.7343.42441.96994.96994,0,0,0-.2908.7343.88859.88859,0,0,0,.13473.49683,1.04512,1.04512,0,0,0,.34132.33122,1.45747,1.45747,0,0,0,.47606.17571,2.72229,2.72229,0,0,0,.5176.05165,2.09808,2.09808,0,0,0,1.58312-.56869,2.12716,2.12716,0,0,0,.549-1.54214Z" fill="#010101"/><path d="M183.08324,78.03339v-5.629a4.57229,4.57229,0,0,0-.073-.828,2.26921,2.26921,0,0,0-.238-.69332,1.23557,1.23557,0,0,0-.46483-.4755,1.47858,1.47858,0,0,0-.75563-.17628,1.7199,1.7199,0,0,0-.79717.17628,1.62625,1.62625,0,0,0-.56925.48616,2.22056,2.22056,0,0,0-.34132.71409,3.09775,3.09775,0,0,0-.1134.83815v5.58751h-3.41437v-10.306H179.606V69.155h.04154a3.45136,3.45136,0,0,1,.48616-.65177,2.918,2.918,0,0,1,.704-.54848,4.41156,4.41156,0,0,1,.87914-.3722,3.4712,3.4712,0,0,1,1.015-.14484,3.80975,3.80975,0,0,1,1.75827.3722,3.37931,3.37931,0,0,1,1.16994.96222,3.80116,3.80116,0,0,1,.64111,1.35575,6.12293,6.12293,0,0,1,.19649,1.53147v6.374Z" fill="#010101"/><path d="M195.52722,70.76958a3.78589,3.78589,0,0,0-.97233-.66244,2.69045,2.69045,0,0,0-1.18-.26891,2.0646,2.0646,0,0,0-.87914.18638.65164.65164,0,0,0-.40308.64111.63689.63689,0,0,0,.44462.6209,9.66408,9.66408,0,0,0,1.43828.41431,7.74591,7.74591,0,0,1,1.16881.35143,4.13813,4.13813,0,0,1,1.06552.60013,2.87616,2.87616,0,0,1,.76573.91057,2.6727,2.6727,0,0,1,.2908,1.28334,3.09288,3.09288,0,0,1-1.41807,2.73172,4.4145,4.4145,0,0,1-1.41807.60013,6.8112,6.8112,0,0,1-1.573.18638,7.77478,7.77478,0,0,1-2.47236-.40364,5.17949,5.17949,0,0,1-2.01763-1.19015l1.90311-2.00753a3.80283,3.80283,0,0,0,1.11829.828,3.10515,3.10515,0,0,0,1.40684.33122,1.84175,1.84175,0,0,0,.81738-.19649.70573.70573,0,0,0,.4042-.69332.74439.74439,0,0,0-.49739-.704,8.91994,8.91994,0,0,0-1.55168-.47606,7.969,7.969,0,0,1-1.07674-.33066,3.42625,3.42625,0,0,1-.96222-.55914,2.75539,2.75539,0,0,1-.69275-.869,2.65593,2.65593,0,0,1-.26947-1.24179,3.01578,3.01578,0,0,1,.393-1.58312,3.33792,3.33792,0,0,1,1.015-1.06552,4.50267,4.50267,0,0,1,1.3754-.61079,5.95415,5.95415,0,0,1,1.50115-.19649,7.24205,7.24205,0,0,1,2.26577.3621,4.9005,4.9005,0,0,1,1.87279,1.08629Z" fill="#010101"/><path d="M206.60028,64.89183a2.95628,2.95628,0,0,0-.43452-.1033,3.02089,3.02089,0,0,0-.49627-.04154,1.54,1.54,0,0,0-.76573.16561,1.21812,1.21812,0,0,0-.45585.44518,1.87493,1.87493,0,0,0-.22792.631,4.14176,4.14176,0,0,0-.06175.704v1.03464h2.2972V70.252h-2.2972v7.78142h-3.39416V70.252h-1.8829V67.72741h1.8829v-.99366a7.699,7.699,0,0,1,.20771-1.81048,3.89435,3.89435,0,0,1,.71409-1.5107,3.47581,3.47581,0,0,1,1.3653-1.0352,5.27333,5.27333,0,0,1,2.14226-.38287,7.14206,7.14206,0,0,1,.85893.05221,4.81253,4.81253,0,0,1,.77584.15494Z" fill="#010101"/><path d="M226.48761,77.0605a7.23711,7.23711,0,0,1-.43452,2.62842,4.93478,4.93478,0,0,1-1.22158,1.852,4.98928,4.98928,0,0,1-1.91434,1.097A8.128,8.128,0,0,1,220.42348,83a10.12223,10.12223,0,0,1-2.80358-.41374,7.67322,7.67322,0,0,1-2.49369-1.20025l1.69652-2.42127a4.97815,4.97815,0,0,0,1.64487.983,5.2517,5.2517,0,0,0,1.7695.32055,2.83391,2.83391,0,0,0,2.204-.78651,2.98893,2.98893,0,0,0,.71409-2.09005v-.6209h-.06175a3.3514,3.3514,0,0,1-1.28334.99366,4.3498,4.3498,0,0,1-1.84136.3722,4.8963,4.8963,0,0,1-2.09061-.42385,4.58577,4.58577,0,0,1-1.54157-1.1486,5.0101,5.0101,0,0,1-.96222-1.687,6.21,6.21,0,0,1-.33122-2.0384,6.30237,6.30237,0,0,1,.33122-2.04851,5.22716,5.22716,0,0,1,.96222-1.71785,4.59628,4.59628,0,0,1,3.61086-1.63477,4.55592,4.55592,0,0,1,1.86269.393,3.23381,3.23381,0,0,1,1.42817,1.221h.04154V67.72741h3.20778Zm-3.22911-4.24242a2.85254,2.85254,0,0,0-.17515-.9931,2.53144,2.53144,0,0,0-.5075-.83815,2.40758,2.40758,0,0,0-.78594-.56925,2.48606,2.48606,0,0,0-1.0352-.20715,2.408,2.408,0,0,0-1.024.20715,2.26665,2.26665,0,0,0-.75563.55858,2.46392,2.46392,0,0,0-.47606.828,3.04539,3.04539,0,0,0-.165,1.01387,2.98139,2.98139,0,0,0,.165.99366,2.57361,2.57361,0,0,0,.47606.83815,2.26455,2.26455,0,0,0,1.7796.79661A2.43341,2.43341,0,0,0,222.586,74.66a2.49741,2.49741,0,0,0,.49739-.82749A2.91224,2.91224,0,0,0,223.2585,72.81808Z" fill="#010101"/><path d="M235.93264,78.03339V76.60522h-.04154a2.893,2.893,0,0,1-.48616.66244,3.05957,3.05957,0,0,1-.70286.53781,4.29434,4.29434,0,0,1-.89036.37276,3.57155,3.57155,0,0,1-1.024.14484,3.74867,3.74867,0,0,1-1.74929-.3722,3.38507,3.38507,0,0,1-1.15871-.96278,3.7774,3.7774,0,0,1-.64111-1.34509,6.08153,6.08153,0,0,1-.19761-1.54157v-6.374h3.41549v5.58751a5.29218,5.29218,0,0,0,.06175.828,2.05876,2.05876,0,0,0,.238.70342,1.3065,1.3065,0,0,0,.466.48616,1.4615,1.4615,0,0,0,.76573.17628,1.55184,1.55184,0,0,0,1.35519-.66244,2.62526,2.62526,0,0,0,.466-1.55224V67.72741h3.39416v10.306Z" fill="#010101"/><path d="M248.792,70.52088a2.7018,2.7018,0,0,0-.44462-.08252c-.14484-.01347-.28631-.02077-.42441-.02077a2.43359,2.43359,0,0,0-1.1486.24757,2.34118,2.34118,0,0,0-.7444.59844,2.27494,2.27494,0,0,0-.4042.76405,2.54651,2.54651,0,0,0-.12463.72195v5.28379h-3.393V67.73976h3.26953v1.48993h.04154a3.358,3.358,0,0,1,1.11716-1.29176,2.87783,2.87783,0,0,1,1.67631-.5002,3.9603,3.9603,0,0,1,.4042.02021,1.58113,1.58113,0,0,1,.32.06231Z" fill="#010101"/><path d="M250.372,69.13425a5.93427,5.93427,0,0,1,2.12093-1.30355,7.27069,7.27069,0,0,1,2.47348-.43452,6.6271,6.6271,0,0,1,2.204.32055,3.291,3.291,0,0,1,1.45849.99366,4.23856,4.23856,0,0,1,.81738,1.69708,10.00326,10.00326,0,0,1,.25824,2.43138v5.19453H256.6012v-1.097h-.06288a2.55543,2.55543,0,0,1-1.189.99366,4.24521,4.24521,0,0,1-1.72908.35143,5.26876,5.26876,0,0,1-1.28221-.16561,3.75466,3.75466,0,0,1-1.21148-.53781,2.90735,2.90735,0,0,1-.89935-.9931,3.06678,3.06678,0,0,1-.35255-1.53147,2.59794,2.59794,0,0,1,.61079-1.80094,4.00136,4.00136,0,0,1,1.573-1.05541,8.32256,8.32256,0,0,1,2.14226-.49627,21.84725,21.84725,0,0,1,2.29608-.12463v-.165a1.2639,1.2639,0,0,0-.53781-1.12839,2.32171,2.32171,0,0,0-1.32376-.3621,3.30579,3.30579,0,0,0-1.39786.31045,4.47986,4.47986,0,0,0-1.1486.745Zm6.22917,4.40859h-.43452q-.55914,0-1.12839.05165a4.62069,4.62069,0,0,0-1.01387.19649,1.85766,1.85766,0,0,0-.7343.42441.96994.96994,0,0,0-.2908.7343.88859.88859,0,0,0,.13473.49683,1.04512,1.04512,0,0,0,.34132.33122,1.45747,1.45747,0,0,0,.47606.17571,2.72229,2.72229,0,0,0,.5176.05165,2.09808,2.09808,0,0,0,1.58312-.56869,2.12716,2.12716,0,0,0,.549-1.54214Z" fill="#010101"/><path d="M266.119,70.252V74.1991a1.77469,1.77469,0,0,0,.27845,1.09078,1.19692,1.19692,0,0,0,1.00376.36378,3.61619,3.61619,0,0,0,.52771-.04154,1.82067,1.82067,0,0,0,.466-.12407l.04154,2.483a5.52913,5.52913,0,0,1-.89036.21726,6.27023,6.27023,0,0,1-1.07562.09319,5.05428,5.05428,0,0,1-1.73806-.25936,2.6902,2.6902,0,0,1-1.12839-.74665,2.93567,2.93567,0,0,1-.61079-1.16208,5.6712,5.6712,0,0,1-.18638-1.504V70.252h-1.655V67.72741h1.63477V65.01646H266.119v2.71095h2.42071V70.252Z" fill="#010101"/><path d="M274.649,64.43654a1.75754,1.75754,0,0,1-.15607.73486,1.85112,1.85112,0,0,1-1.03408.983,2.01894,2.01894,0,0,1-.75563.14484,1.89937,1.89937,0,0,1-1.38663-.54848,1.775,1.775,0,0,1-.55914-1.31421,1.80767,1.80767,0,0,1,.14484-.71353,1.6885,1.6885,0,0,1,.41431-.59,2.23824,2.23824,0,0,1,.6209-.40364,1.87815,1.87815,0,0,1,.76573-.15494,2.01894,2.01894,0,0,1,.75563.14484,1.85112,1.85112,0,0,1,1.03408.983A1.75684,1.75684,0,0,1,274.649,64.43654Zm-3.64229,13.59685v-10.306h3.393v10.306Z" fill="#010101"/><path d="M288.14476,72.83886a5.57929,5.57929,0,0,1-.45585,2.2871,5.124,5.124,0,0,1-1.24179,1.73806,5.66654,5.66654,0,0,1-1.82115,1.10706,6.39693,6.39693,0,0,1-4.41813,0,5.52518,5.52518,0,0,1-1.82115-1.10706A5.19165,5.19165,0,0,1,277.155,75.126a5.579,5.579,0,0,1-.45473-2.2871,5.5058,5.5058,0,0,1,.45473-2.27643,5.10856,5.10856,0,0,1,1.23169-1.71785,5.36241,5.36241,0,0,1,1.82115-1.07618,6.74163,6.74163,0,0,1,4.41813,0,5.49453,5.49453,0,0,1,1.82115,1.07618,5.043,5.043,0,0,1,1.24179,1.71785A5.50606,5.50606,0,0,1,288.14476,72.83886Zm-3.27065,0a2.94615,2.94615,0,0,0-.165-.97233,2.56782,2.56782,0,0,0-.47606-.83815,2.42634,2.42634,0,0,0-.76573-.59,2.37761,2.37761,0,0,0-2.86645.59,2.52115,2.52115,0,0,0-.45473.83815,3.13008,3.13008,0,0,0,0,1.94521,2.66678,2.66678,0,0,0,.46483.85893,2.29761,2.29761,0,0,0,.76573.61023,2.56013,2.56013,0,0,0,2.11195,0,2.29761,2.29761,0,0,0,.76573-.61023,2.66678,2.66678,0,0,0,.46483-.85893A3.12368,3.12368,0,0,0,284.8741,72.83886Z" fill="#010101"/><path d="M297.03177,78.03339v-5.629a4.5723,4.5723,0,0,0-.073-.828,2.26921,2.26921,0,0,0-.238-.69332,1.23557,1.23557,0,0,0-.46483-.4755,1.47858,1.47858,0,0,0-.75563-.17628,1.7199,1.7199,0,0,0-.79717.17628,1.62625,1.62625,0,0,0-.56925.48616,2.22056,2.22056,0,0,0-.34132.71409,3.09775,3.09775,0,0,0-.1134.83815v5.58751h-3.41437v-10.306h3.28974V69.155h.04154a3.45136,3.45136,0,0,1,.48616-.65177,2.918,2.918,0,0,1,.704-.54848,4.41156,4.41156,0,0,1,.87914-.3722,3.4712,3.4712,0,0,1,1.015-.14484,3.80975,3.80975,0,0,1,1.75827.3722,3.37931,3.37931,0,0,1,1.16994.96222,3.80116,3.80116,0,0,1,.64111,1.35575,6.12293,6.12293,0,0,1,.19649,1.53147v6.374Z" fill="#010101"/><path d="M212.90558,64.43654a1.75675,1.75675,0,0,1-.15494.73486,1.825,1.825,0,0,1-.42441.59,2.06687,2.06687,0,0,1-.6209.393,1.93856,1.93856,0,0,1-.74552.14484,1.90117,1.90117,0,0,1-1.38663-.54848,1.77818,1.77818,0,0,1-.558-1.31421A1.80767,1.80767,0,0,1,209.16,63.723a1.70029,1.70029,0,0,1,.41318-.59,2.23824,2.23824,0,0,1,.6209-.40364,1.87815,1.87815,0,0,1,.76573-.15494,1.93856,1.93856,0,0,1,.74552.14484,2.06687,2.06687,0,0,1,.6209.393,1.825,1.825,0,0,1,.42441.59A1.756,1.756,0,0,1,212.90558,64.43654Z" fill="#010101"/><rect x="209.24195" y="67.72741" width="3.41549" height="10.30598" fill="#010101"/><path d="M148.396,90.67188h.95215L153.52,100.584h-1.03613l-1.07812-2.63184h-5.25l-1.11963,2.63184h-.96631Zm.43408,1.00781L146.52,97.11133h4.5498Z" fill="#231f20"/><path d="M154.71,95.93555c0-.12109-.00488-.26758-.01416-.44043s-.0166-.34766-.021-.52441q-.00732-.2666-.021-.498c-.00928-.1543-.01416-.27246-.01416-.35645H155.48c.00928.24316.01611.47559.021.7002a2.19379,2.19379,0,0,0,.03467.43359h.042a2.26876,2.26876,0,0,1,.84033-.917,2.44646,2.44646,0,0,1,1.37207-.38574,2.7647,2.7647,0,0,1,1.23193.23828,1.9994,1.9994,0,0,1,.749.623,2.36069,2.36069,0,0,1,.37793.88867,5.09036,5.09036,0,0,1,.105,1.03711V100.584h-.83984V96.77539a4.07025,4.07025,0,0,0-.07031-.76172,2.02725,2.02725,0,0,0-.24512-.666,1.28924,1.28924,0,0,0-.48975-.46875,1.67234,1.67234,0,0,0-.81885-.1748,2.38377,2.38377,0,0,0-.875.16113,1.8805,1.8805,0,0,0-.71436.49023,2.3632,2.3632,0,0,0-.47607.82617,3.51319,3.51319,0,0,0-.1748,1.168V100.584H154.71Z" fill="#231f20"/><path d="M169.41016,90.67188h.95215l4.17188,9.91211H173.498l-1.07812-2.63184h-5.25l-1.11963,2.63184H165.084Zm.43408,1.00781-2.31006,5.43164h4.5498Z" fill="#231f20"/><path d="M175.72412,95.93555c0-.12109-.00488-.26758-.01416-.44043s-.0166-.34766-.021-.52441q-.00732-.2666-.021-.498c-.00928-.1543-.01416-.27246-.01416-.35645h.84033c.00928.24316.01611.47559.021.7002a2.19379,2.19379,0,0,0,.03467.43359h.042a2.26876,2.26876,0,0,1,.84033-.917,2.44646,2.44646,0,0,1,1.37207-.38574,2.7647,2.7647,0,0,1,1.23193.23828,1.9994,1.9994,0,0,1,.749.623,2.36069,2.36069,0,0,1,.37793.88867,5.125,5.125,0,0,1,.10449,1.03711V100.584h-.83936V96.77539a4.07025,4.07025,0,0,0-.07031-.76172,2.02725,2.02725,0,0,0-.24512-.666,1.28924,1.28924,0,0,0-.48975-.46875,1.67234,1.67234,0,0,0-.81885-.1748,2.38377,2.38377,0,0,0-.875.16113,1.8805,1.8805,0,0,0-.71436.49023,2.3632,2.3632,0,0,0-.47607.82617,3.51319,3.51319,0,0,0-.1748,1.168V100.584h-.83984Z" fill="#231f20"/><path d="M190.00391,100.16406a4.58793,4.58793,0,0,1-.35059,1.94531,3.06358,3.06358,0,0,1-.875,1.14844,2.89921,2.89921,0,0,1-1.127.54688,4.9398,4.9398,0,0,1-1.0918.13867,5.02745,5.02745,0,0,1-.959-.08984,4.64469,4.64469,0,0,1-.88867-.2666,3.65892,3.65892,0,0,1-.76367-.42676,3.0202,3.0202,0,0,1-.59473-.57422l.6582-.61523a2.683,2.683,0,0,0,1.12012.92383,3.53422,3.53422,0,0,0,1.42773.293,3.05514,3.05514,0,0,0,1.085-.168,2.07469,2.07469,0,0,0,1.17578-1.043,3.10972,3.10972,0,0,0,.23828-.6582,3.356,3.356,0,0,0,.09082-.623q.01465-.293.01465-.47461v-.89648h-.02832a2.59069,2.59069,0,0,1-.9873.92383,3.02731,3.02731,0,0,1-1.46289.33594,3.49616,3.49616,0,0,1-1.34375-.25879,3.4237,3.4237,0,0,1-1.84082-1.77051,3.17062,3.17062,0,0,1,0-2.57617,3.3267,3.3267,0,0,1,.74219-1.05078,3.604,3.604,0,0,1,1.09863-.71387,3.43013,3.43013,0,0,1,1.34375-.2666,3.03864,3.03864,0,0,1,1.46289.33691,2.58327,2.58327,0,0,1,.9873.92383h.02832v-1.0918h.83984Zm-.8125-2.89844a2.48454,2.48454,0,0,0-.20312-1,2.54389,2.54389,0,0,0-1.35742-1.3584,2.56791,2.56791,0,0,0-2.002,0,2.54133,2.54133,0,0,0-1.3584,1.3584,2.56791,2.56791,0,0,0,0,2.002,2.54389,2.54389,0,0,0,1.3584,1.35742,2.56791,2.56791,0,0,0,2.002,0,2.54645,2.54645,0,0,0,1.35742-1.35742A2.48709,2.48709,0,0,0,189.19141,97.26563Z" fill="#231f20"/><path d="M192.20117,90h.83984v10.584h-.83984Z" fill="#231f20"/><path d="M195.05664,97.34961a3.61336,3.61336,0,0,1,.252-1.36523,3.27036,3.27036,0,0,1,.7002-1.07715,3.11265,3.11265,0,0,1,1.07813-.707,3.66014,3.66014,0,0,1,1.37207-.25293,3.61366,3.61366,0,0,1,1.36523.25293,3.17169,3.17169,0,0,1,1.78418,1.78418,3.82481,3.82481,0,0,1,0,2.73047A3.16952,3.16952,0,0,1,199.82422,100.5a3.61336,3.61336,0,0,1-1.36523.252,3.65981,3.65981,0,0,1-1.37207-.252,3.12651,3.12651,0,0,1-1.07812-.707,3.24465,3.24465,0,0,1-.7002-1.07812A3.60618,3.60618,0,0,1,195.05664,97.34961Zm.83984,0a2.98718,2.98718,0,0,0,.17578,1.0293,2.38892,2.38892,0,0,0,.51074.83984,2.45367,2.45367,0,0,0,.81152.56738,2.80077,2.80077,0,0,0,2.12793,0,2.46788,2.46788,0,0,0,.8125-.56738,2.41787,2.41787,0,0,0,.51074-.83984,3.11779,3.11779,0,0,0,0-2.05859,2.42686,2.42686,0,0,0-.51074-.83984,2.49459,2.49459,0,0,0-.8125-.56641,2.80077,2.80077,0,0,0-2.12793,0,2.48007,2.48007,0,0,0-.81152.56641,2.39769,2.39769,0,0,0-.51074.83984A2.9912,2.9912,0,0,0,195.89648,97.34961Z" fill="#231f20"/><path d="M203.21875,96.88867h3.458v.75586h-3.458Z" fill="#231f20"/><path d="M216.79883,99.0293a4.19634,4.19634,0,0,1-1.65137,1.38672,4.92281,4.92281,0,0,1-2.03027.41992,5.47614,5.47614,0,0,1-2.0791-.38477A4.6898,4.6898,0,0,1,209.4209,99.373a4.95744,4.95744,0,0,1-1.0498-1.65234,5.96437,5.96437,0,0,1,0-4.17871,4.98652,4.98652,0,0,1,1.0498-1.64551,4.77348,4.77348,0,0,1,1.61719-1.084,5.368,5.368,0,0,1,2.0791-.39258A4.92945,4.92945,0,0,1,215,90.77734a3.73857,3.73857,0,0,1,1.5332,1.19727l-.75586.62891a2.73689,2.73689,0,0,0-1.18262-1.02148,3.5905,3.5905,0,0,0-1.47754-.32227,4.35936,4.35936,0,0,0-1.74316.33594,3.89158,3.89158,0,0,0-1.32227.92383,4.09759,4.09759,0,0,0-.84082,1.38672,5.189,5.189,0,0,0,0,3.44336,4.09759,4.09759,0,0,0,.84082,1.38672,3.89158,3.89158,0,0,0,1.32227.92383,4.35936,4.35936,0,0,0,1.74316.33594,3.66052,3.66052,0,0,0,1.5752-.37109,3.79523,3.79523,0,0,0,.73535-.47656,3.03328,3.03328,0,0,0,.61523-.69238Z" fill="#231f20"/><path d="M223.28125,97.86816q0,.47607.00684.85449c.00391.252.01172.48438.02051.69922.00977.21484.02148.416.03516.60156q.02051.28125.06348.56055H222.623a5.99467,5.99467,0,0,1-.084-1.0498h-.02832a2.36435,2.36435,0,0,1-.90332.92383,2.82541,2.82541,0,0,1-1.36426.29395,3.27081,3.27081,0,0,1-.82617-.10547,2.14522,2.14522,0,0,1-.72852-.33594,1.72856,1.72856,0,0,1-.72754-1.47656,1.72875,1.72875,0,0,1,.37793-1.17578,2.369,2.369,0,0,1,.93066-.65137,4.46985,4.46985,0,0,1,1.17578-.28027c.416-.041.78223-.0625,1.09961-.0625h.97949v-.39258a1.3673,1.3673,0,0,0-.51758-1.20312,2.20731,2.20731,0,0,0-1.30176-.36426,2.95772,2.95772,0,0,0-1.97461.72754l-.48926-.57422a2.98843,2.98843,0,0,1,1.14746-.67773,4.11613,4.11613,0,0,1,1.31641-.23242,2.948,2.948,0,0,1,1.876.55371,2.14042,2.14042,0,0,1,.7002,1.78516Zm-1.68066-.53223a7.35384,7.35384,0,0,0-1.0293.07031,3.58556,3.58556,0,0,0-.89551.23828,1.65726,1.65726,0,0,0-.63672.44727,1.04236,1.04236,0,0,0-.23828.7002,1.02622,1.02622,0,0,0,.13281.52441,1.16425,1.16425,0,0,0,.34277.37891,1.64167,1.64167,0,0,0,.46973.22363,1.81361,1.81361,0,0,0,.52441.07715,2.69851,2.69851,0,0,0,1.10645-.19629,1.87144,1.87144,0,0,0,.69238-.51074,1.77883,1.77883,0,0,0,.35742-.71387,3.36194,3.36194,0,0,0,.09766-.80566v-.43359Z" fill="#231f20"/><path d="M228.68457,94.87207h-1.84863v4.21387a.91014.91014,0,0,0,.23828.67188.88822.88822,0,0,0,.6582.23828,1.99043,1.99043,0,0,0,.4834-.0625,3.0854,3.0854,0,0,0,.46875-.16211l.06934.75586a4.77465,4.77465,0,0,1-.5459.1543,2.481,2.481,0,0,1-.5459.07031,2.02525,2.02525,0,0,1-.76953-.13281,1.361,1.361,0,0,1-.51855-.35742,1.40307,1.40307,0,0,1-.28711-.52539,2.23237,2.23237,0,0,1-.09082-.65039V94.87207h-1.39941v-.75586h1.39941v-1.8623h.83984v1.8623h1.84863Z" fill="#231f20"/><path d="M230.19629,90h.83984v5.25h.02832a2.26393,2.26393,0,0,1,.83984-.917,2.44421,2.44421,0,0,1,1.37207-.38574,2.76245,2.76245,0,0,1,1.23145.23828,1.99181,1.99181,0,0,1,.749.623,2.33,2.33,0,0,1,.37793.88867,5.05622,5.05622,0,0,1,.10547,1.03711V100.584h-.83984V96.77539a4.07025,4.07025,0,0,0-.07031-.76172,2.01636,2.01636,0,0,0-.24512-.666,1.28715,1.28715,0,0,0-.49023-.46875,1.67032,1.67032,0,0,0-.81836-.1748,2.38377,2.38377,0,0,0-.875.16113,1.875,1.875,0,0,0-.71387.49023,2.364,2.364,0,0,0-.47656.82617,3.52581,3.52581,0,0,0-.1748,1.168V100.584h-.83984Z" fill="#231f20"/><path d="M237.61621,97.34961a3.61336,3.61336,0,0,1,.252-1.36523,3.27036,3.27036,0,0,1,.7002-1.07715,3.11265,3.11265,0,0,1,1.07813-.707,3.66014,3.66014,0,0,1,1.37207-.25293,3.61366,3.61366,0,0,1,1.36523.25293,3.17169,3.17169,0,0,1,1.78418,1.78418,3.82481,3.82481,0,0,1,0,2.73047A3.16952,3.16952,0,0,1,242.38379,100.5a3.61336,3.61336,0,0,1-1.36523.252,3.65981,3.65981,0,0,1-1.37207-.252,3.12651,3.12651,0,0,1-1.07812-.707,3.24465,3.24465,0,0,1-.7002-1.07812A3.60618,3.60618,0,0,1,237.61621,97.34961Zm.83984,0a2.98718,2.98718,0,0,0,.17578,1.0293,2.38892,2.38892,0,0,0,.51074.83984,2.45367,2.45367,0,0,0,.81152.56738,2.80077,2.80077,0,0,0,2.12793,0,2.46788,2.46788,0,0,0,.8125-.56738,2.41787,2.41787,0,0,0,.51074-.83984,3.11779,3.11779,0,0,0,0-2.05859,2.42686,2.42686,0,0,0-.51074-.83984,2.49459,2.49459,0,0,0-.8125-.56641,2.80077,2.80077,0,0,0-2.12793,0,2.48007,2.48007,0,0,0-.81152.56641,2.3977,2.3977,0,0,0-.51074.83984A2.9912,2.9912,0,0,0,238.45605,97.34961Z" fill="#231f20"/><path d="M246.43555,90h.83984v10.584h-.83984Z" fill="#231f20"/><path d="M249.59863,91.55469a.622.622,0,1,1,.18262.44727A.60983.60983,0,0,1,249.59863,91.55469Zm.21,2.56152h.83984V100.584h-.83984Z" fill="#231f20"/><path d="M258.44629,99.63184a3.01811,3.01811,0,0,1-1.07812.84668,3.10446,3.10446,0,0,1-1.30176.27344,3.65981,3.65981,0,0,1-1.37207-.252,3.12651,3.12651,0,0,1-1.07812-.707,3.24466,3.24466,0,0,1-.7002-1.07812,3.82481,3.82481,0,0,1,0-2.73047,3.27036,3.27036,0,0,1,.7002-1.07715,3.11265,3.11265,0,0,1,1.07813-.707,3.66014,3.66014,0,0,1,1.37207-.25293,3.00256,3.00256,0,0,1,1.32324.29492,3.46432,3.46432,0,0,1,1.085.82617l-.67285.50391a2.87707,2.87707,0,0,0-.79785-.63672,1.96029,1.96029,0,0,0-.9375-.23145,2.59867,2.59867,0,0,0-1.06445.21,2.48007,2.48007,0,0,0-.81152.56641,2.39769,2.39769,0,0,0-.51074.83984,3.10144,3.10144,0,0,0,0,2.05859,2.38892,2.38892,0,0,0,.51074.83984,2.45367,2.45367,0,0,0,.81152.56738,2.61472,2.61472,0,0,0,1.06445.21,1.97137,1.97137,0,0,0,.97266-.24512,2.53114,2.53114,0,0,0,.7627-.65137Z" fill="#231f20"/><path d="M263.63965,90.67188h2.85547a5.297,5.297,0,0,1,1.085.11914,3.162,3.162,0,0,1,1.03613.41309,2.3269,2.3269,0,0,1,.77051.80469A2.498,2.498,0,0,1,269.6875,93.29a2.575,2.575,0,0,1-.24512,1.16211,2.26564,2.26564,0,0,1-.6582.80469,2.857,2.857,0,0,1-.95215.46973,4.12115,4.12115,0,0,1-1.127.15332h-2.1416v4.7041h-.92383Zm.92383,4.36816h2.09961a3.286,3.286,0,0,0,.77051-.09082,1.96458,1.96458,0,0,0,.67188-.29492,1.52283,1.52283,0,0,0,.47559-.53809,1.71659,1.71659,0,0,0,.18262-.82617,1.62971,1.62971,0,0,0-.18945-.81152,1.69686,1.69686,0,0,0-.49023-.55371,2.023,2.023,0,0,0-.69238-.31543,3.27244,3.27244,0,0,0-.78418-.09766h-2.04395Z" fill="#231f20"/><path d="M276.46387,97.86816q0,.47607.00684.85449c.00391.252.01172.48438.02051.69922.00977.21484.02148.416.03516.60156q.02051.28125.06348.56055h-.78418a5.99467,5.99467,0,0,1-.084-1.0498h-.02832a2.36435,2.36435,0,0,1-.90332.92383,2.82541,2.82541,0,0,1-1.36426.29395,3.27081,3.27081,0,0,1-.82617-.10547,2.14522,2.14522,0,0,1-.72852-.33594,1.72856,1.72856,0,0,1-.72754-1.47656,1.72874,1.72874,0,0,1,.37793-1.17578,2.369,2.369,0,0,1,.93066-.65137,4.46985,4.46985,0,0,1,1.17578-.28027c.416-.041.78223-.0625,1.09961-.0625h.97949v-.39258a1.3673,1.3673,0,0,0-.51758-1.20312,2.20731,2.20731,0,0,0-1.30176-.36426,2.95772,2.95772,0,0,0-1.97461.72754l-.48926-.57422a2.98843,2.98843,0,0,1,1.14746-.67773,4.11613,4.11613,0,0,1,1.31641-.23242,2.948,2.948,0,0,1,1.876.55371,2.14042,2.14042,0,0,1,.7002,1.78516Zm-1.68066-.53223a7.35384,7.35384,0,0,0-1.0293.07031,3.58556,3.58556,0,0,0-.89551.23828,1.65726,1.65726,0,0,0-.63672.44727,1.04236,1.04236,0,0,0-.23828.7002,1.02622,1.02622,0,0,0,.13281.52441,1.16425,1.16425,0,0,0,.34277.37891,1.64167,1.64167,0,0,0,.46973.22363,1.81361,1.81361,0,0,0,.52441.07715,2.69851,2.69851,0,0,0,1.10645-.19629,1.87144,1.87144,0,0,0,.69238-.51074,1.77883,1.77883,0,0,0,.35742-.71387,3.36194,3.36194,0,0,0,.09766-.80566v-.43359Z" fill="#231f20"/><path d="M278.70313,95.93555c0-.12109-.00488-.26758-.01367-.44043-.00977-.17285-.0166-.34766-.02148-.52441q-.00732-.2666-.02051-.498c-.00977-.1543-.01465-.27246-.01465-.35645h.83984c.00977.24316.0166.47559.02148.7002a2.14161,2.14161,0,0,0,.03516.43359,2.8432,2.8432,0,0,1,.82617-.9375,2.04351,2.04351,0,0,1,1.23145-.36523,1.43926,1.43926,0,0,1,.24512.02148c.0791.01367.16113.03125.24512.04883l-.09766.82617a1.02655,1.02655,0,0,0-.32227-.05566,2.33036,2.33036,0,0,0-.94531.1748,1.78837,1.78837,0,0,0-.6582.48242,2.02812,2.02812,0,0,0-.38477.72168,3.03244,3.03244,0,0,0-.126.88965V100.584h-.83984Z" fill="#231f20"/><path d="M283.29492,91.55469a.622.622,0,1,1,.18262.44727A.60983.60983,0,0,1,283.29492,91.55469Zm.21,2.56152h.83984V100.584h-.83984Z" fill="#231f20"/><path d="M286.73926,98.93164a1.80536,1.80536,0,0,0,.78418.791,2.31452,2.31452,0,0,0,1.0918.27344,1.77008,1.77008,0,0,0,.53223-.084,1.62193,1.62193,0,0,0,.47559-.23828,1.29487,1.29487,0,0,0,.34375-.37109.93788.93788,0,0,0,.13281-.49609.80134.80134,0,0,0-.28711-.67285,2.12872,2.12872,0,0,0-.707-.34961,8.66418,8.66418,0,0,0-.92383-.21777,3.94106,3.94106,0,0,1-.92383-.2793,1.97292,1.97292,0,0,1-.707-.52539,1.42079,1.42079,0,0,1-.28711-.95117,1.66736,1.66736,0,0,1,.19531-.82617,1.81422,1.81422,0,0,1,.51172-.582,2.21022,2.21022,0,0,1,.707-.3418,2.86917,2.86917,0,0,1,.79785-.11328,3.01656,3.01656,0,0,1,1.37891.29492,2.03945,2.03945,0,0,1,.90332.92383l-.75586.44727a1.77816,1.77816,0,0,0-.5957-.67773,1.68259,1.68259,0,0,0-.93066-.23145,1.73076,1.73076,0,0,0-.46875.06934,1.6208,1.6208,0,0,0-.44141.19727,1.1457,1.1457,0,0,0-.3291.32129.77864.77864,0,0,0-.13281.44824.74417.74417,0,0,0,.28711.64355,2.20553,2.20553,0,0,0,.707.3291,8.55268,8.55268,0,0,0,.92383.20313,3.7311,3.7311,0,0,1,.92383.27344,1.88167,1.88167,0,0,1,.707.54492,1.586,1.586,0,0,1,.28711,1.01563,1.89206,1.89206,0,0,1-.18945.875,1.80774,1.80774,0,0,1-.51758.623,2.31318,2.31318,0,0,1-.749.37793,3.05582,3.05582,0,0,1-.88184.126,3.5901,3.5901,0,0,1-1.5332-.32227,2.327,2.327,0,0,1-1.07129-.99414Z" fill="#231f20"/><path d="M292.68945,90h.83984v5.25h.02832a2.26393,2.26393,0,0,1,.83984-.917,2.44421,2.44421,0,0,1,1.37207-.38574,2.76245,2.76245,0,0,1,1.23145.23828,1.99181,1.99181,0,0,1,.749.623,2.33,2.33,0,0,1,.37793.88867,5.05622,5.05622,0,0,1,.10547,1.03711V100.584h-.83984V96.77539a4.07025,4.07025,0,0,0-.07031-.76172,2.01636,2.01636,0,0,0-.24512-.666,1.28715,1.28715,0,0,0-.49023-.46875,1.67031,1.67031,0,0,0-.81836-.1748,2.38377,2.38377,0,0,0-.875.16113,1.875,1.875,0,0,0-.71387.49023,2.364,2.364,0,0,0-.47656.82617,3.52581,3.52581,0,0,0-.1748,1.168V100.584h-.83984Z" fill="#231f20"/><use width="111" height="111" transform="translate(0 12) scale(0.97297)" xlink:href="#LC-Logo0-09-17-2017"/></svg>