<svg id="Layer_1" data-name="Layer 1" xmlns="http://www.w3.org/2000/svg" width="60" height="60" viewBox="0 0 60 60"><title>wheelchair-access</title><rect width="60" height="60" rx="6" ry="6" fill="#00579a"/><path d="M47.93678,27.76366a2.85686,2.85686,0,0,0-2.2009-.8571l-9.94332.55349,5.472-6.23215a3.34216,3.34216,0,0,0,.70088-3.12866,2.8393,2.8393,0,0,0-1.272-1.80519c-.02071-.01477-13.08006-7.60126-13.08006-7.60126a2.85155,2.85155,0,0,0-3.33037.33782L17.9037,14.72108a2.85175,2.85175,0,1,0,3.79666,4.25619l4.8364-4.31416,3.99823,2.3218L23.47749,25.0227a14.54183,14.54183,0,0,0-7.62664,3.77016l3.68549,3.68549A9.37213,9.37213,0,0,1,32.77581,45.71768l3.68526,3.68548a14.58409,14.58409,0,0,0,2.47624-16.40568l3.84883-.21441-.93629,11.48468a2.852,2.852,0,0,0,2.61086,3.07411c.07859.00638.157.00943.23474.00943a2.8522,2.8522,0,0,0,2.83922-2.62021l1.20175-14.74528A2.85156,2.85156,0,0,0,47.93678,27.76366Z" fill="#fff"/><path d="M42.65479,15.54731a4.77365,4.77365,0,1,0-4.77369-4.77362A4.77331,4.77331,0,0,0,42.65479,15.54731Z" fill="#fff"/><path d="M25.83856,48.79246a9.372,9.372,0,0,1-7.7577-14.63767l-3.72526-3.72519A14.5802,14.5802,0,0,0,34.82436,50.89843l-3.72519-3.725A9.32414,9.32414,0,0,1,25.83856,48.79246Z" fill="#fff"/></svg>