<svg id="Layer_1" data-name="Layer 1" xmlns="http://www.w3.org/2000/svg" width="48" height="48" viewBox="0 0 48 48"><defs><style>.cls-1{fill:#fff;}.cls-2{fill:#4dc8f1;}</style></defs><title>btn-twiiter</title><path class="cls-1" d="M24,0A24,24,0,1,0,48,24,23.99947,23.99947,0,0,0,24,0Z"/><path class="cls-2" d="M13.292,32.637A13.78767,13.78767,0,0,0,34.5033,20.3937a9.82667,9.82667,0,0,0,2.419-2.5097,9.68558,9.68558,0,0,1-2.7842.7632,4.85554,4.85554,0,0,0,2.131-2.682,9.71588,9.71588,0,0,1-3.0779,1.1771,4.85126,4.85126,0,0,0-8.2615,4.4218,13.75853,13.75853,0,0,1-9.9922-5.0659,4.85385,4.85385,0,0,0,1.5004,6.4732,4.83019,4.83019,0,0,1-2.1967-.6067,4.85345,4.85345,0,0,0,3.8886,4.8152,4.85184,4.85184,0,0,1-2.1887.0828,4.85091,4.85091,0,0,0,4.5283,3.367A9.74318,9.74318,0,0,1,13.292,32.637Z"/></svg>