<?xml version="1.0" encoding="UTF-8"?>
<svg xmlns="http://www.w3.org/2000/svg" id="Layer_1" width="300px" height="300px" viewBox="0 0 300 300">
  <title>site-icon</title>
  <path d="M172.10815,15.18311a8.81116,8.81116,0,0,1-3.54736.67017,9.6794,9.6794,0,0,1-3.38013-.57373,8.03238,8.03238,0,0,1-2.68921-1.626,7.5142,7.5142,0,0,1-1.78467-2.51831,7.91783,7.91783,0,0,1-.647-3.23,7.91593,7.91593,0,0,1,.658-3.27271,7.29788,7.29788,0,0,1,1.81885-2.49634A8.12874,8.12874,0,0,1,165.25879.553a10.2053,10.2053,0,0,1,6.66016.011A6.33491,6.33491,0,0,1,174.541,2.21069l-2.58789,2.4646A3.196,3.196,0,0,0,170.54688,3.634a4.88161,4.88161,0,0,0-1.78467-.33936,4.70259,4.70259,0,0,0-1.84082.35034,4.30594,4.30594,0,0,0-1.43921.9668,4.38818,4.38818,0,0,0-.9375,1.45508,4.92,4.92,0,0,0-.33447,1.83838,5.05612,5.05612,0,0,0,.33447,1.87012,4.33449,4.33449,0,0,0,.92651,1.4563,4.15987,4.15987,0,0,0,1.416.94482,4.69791,4.69791,0,0,0,1.80786.34058,4.38718,4.38718,0,0,0,1.98608-.4248,3.80739,3.80739,0,0,0,1.36108-1.106l2.655,2.38037A7.49579,7.49579,0,0,1,172.10815,15.18311Z" fill="#231f20"></path>
  <path d="M189.52148,15.44922V9.15894H183.363v6.29028h-3.81592V.40405H183.363V6.09863h6.15845V.40405h3.8147V15.44922Z" fill="#231f20"></path>
  <path d="M212.8186,12.251a5.38856,5.38856,0,0,1-1.37207,1.91284,6.39146,6.39146,0,0,1-2.15332,1.24268,9.0336,9.0336,0,0,1-5.61157,0,6.17161,6.17161,0,0,1-2.11914-1.24268,5.39618,5.39618,0,0,1-1.33911-1.91284,6.32787,6.32787,0,0,1-.46875-2.47559V.40405h3.79395V9.47754a3.98925,3.98925,0,0,0,.16724,1.16943,2.91789,2.91789,0,0,0,.5127.98755,2.38827,2.38827,0,0,0,.91553.69092,3.81705,3.81705,0,0,0,2.74414,0,2.48071,2.48071,0,0,0,.92529-.69092,2.70007,2.70007,0,0,0,.51392-.98755,4.29525,4.29525,0,0,0,.15625-1.16943V.40405h3.8147V9.77539A6.20123,6.20123,0,0,1,212.8186,12.251Z" fill="#231f20"></path>
  <path d="M228.14941,15.44922l-3.43018-5.97168h-1.3v5.97168h-3.72681V.40405h6.02417A10.95212,10.95212,0,0,1,227.937.62744a5.94012,5.94012,0,0,1,1.94092.75439,4.03914,4.03914,0,0,1,1.37329,1.40259,4.214,4.214,0,0,1,.5127,2.16675,3.878,3.878,0,0,1-.87036,2.572A4.75992,4.75992,0,0,1,228.48389,9.01l4.12842,6.43921Zm-.15625-10.43335a1.453,1.453,0,0,0-.2356-.8606,1.59583,1.59583,0,0,0-.60547-.51025,2.6983,2.6983,0,0,0-.83008-.24414,6.41891,6.41891,0,0,0-.885-.0647h-2.03979V6.84326h1.81519a6.40164,6.40164,0,0,0,.96436-.07446,3.18953,3.18953,0,0,0,.89722-.26611,1.68884,1.68884,0,0,0,.66162-.55176A1.58268,1.58268,0,0,0,227.99316,5.01587Z" fill="#231f20"></path>
  <path d="M248.77075,15.18311a8.81116,8.81116,0,0,1-3.54736.67017,9.6794,9.6794,0,0,1-3.38013-.57373,8.03238,8.03238,0,0,1-2.68921-1.626,7.5142,7.5142,0,0,1-1.78467-2.51831,7.91783,7.91783,0,0,1-.647-3.23,7.91593,7.91593,0,0,1,.658-3.27271,7.29788,7.29788,0,0,1,1.81885-2.49634A8.12874,8.12874,0,0,1,241.92139.553a10.2053,10.2053,0,0,1,6.66016.011,6.33491,6.33491,0,0,1,2.62207,1.64673l-2.58789,2.4646A3.196,3.196,0,0,0,247.20947,3.634a4.88161,4.88161,0,0,0-1.78467-.33936A4.70259,4.70259,0,0,0,243.584,3.645a4.30594,4.30594,0,0,0-1.43921.9668,4.38818,4.38818,0,0,0-.9375,1.45508,4.92,4.92,0,0,0-.33447,1.83838,5.05612,5.05612,0,0,0,.33447,1.87012,4.33449,4.33449,0,0,0,.92651,1.4563,4.15987,4.15987,0,0,0,1.416.94482,4.69791,4.69791,0,0,0,1.80786.34058,4.38708,4.38708,0,0,0,1.98607-.4248,3.80732,3.80732,0,0,0,1.3611-1.106l2.655,2.38037A7.49579,7.49579,0,0,1,248.77075,15.18311Z" fill="#231f20"></path>
  <path d="M266.1853,15.44922V9.15894h-6.15845v6.29028h-3.81592V.40405h3.81592V6.09863h6.15845V.40405H270V15.44922Z" fill="#231f20"></path>
  <path d="M8.27881,3.50708V15.44922H4.46289V3.50708H0V.40405H12.74048v3.103Z" fill="#231f20"></path>
  <path d="M27.62451,15.44922V9.15894H21.46606v6.29028H17.65015V.40405h3.81592V6.09863h6.15845V.40405h3.8147V15.44922Z" fill="#231f20"></path>
  <path d="M37.97485,15.44922V.40405H48.59619v3.0603h-6.9397v2.8479h6.56006V9.22241H41.65649v3.12378H48.9978v3.103Z" fill="#231f20"></path>
  <path d="M63.21655,15.44922V.40405h3.83789V12.28271h6.11328v3.1665Z" fill="#231f20"></path>
  <path d="M78.10059,15.44922V.40405h3.83789V15.44922Z" fill="#231f20"></path>
  <path d="M95.105,3.50708V15.44922H91.28906V3.50708H86.82617V.40405H99.56665v3.103Z" fill="#231f20"></path>
  <path d="M111.958,3.50708V15.44922h-3.81592V3.50708H103.6792V.40405h12.74048v3.103Z" fill="#231f20"></path>
  <path d="M121.32935,15.44922V.40405h3.83789V12.28271h6.11328v3.1665Z" fill="#231f20"></path>
  <path d="M136.21094,15.44922V.40405h10.62134v3.0603h-6.9397v2.8479h6.56006V9.22241h-6.56006v3.12378h7.34131v3.103Z" fill="#231f20"></path>
  <path d="M284.55078,42.65137l2.9541-1.22681v-6.1145l-2.9541-1.15967V30l15.04517,6.6272v3.70361l-15.04517,6.56006Zm11.02905-4.2395-5.16357-2.00806V40.376Z" fill="#231f20"></path>
  <path d="M284.55078,58.05786l5.97168-3.43018v-1.3h-5.97168V49.60083h15.04517V55.625a10.95212,10.95212,0,0,1-.22339,2.22046,5.94012,5.94012,0,0,1-.75439,1.94092,4.03914,4.03914,0,0,1-1.40259,1.37329,4.214,4.214,0,0,1-2.16675.5127,3.878,3.878,0,0,1-2.572-.87036A4.75992,4.75992,0,0,1,290.99,58.39233l-6.43921,4.12842Zm10.43335-.15625a1.453,1.453,0,0,0,.8606-.2356,1.59583,1.59583,0,0,0,.51025-.60547,2.6983,2.6983,0,0,0,.24414-.83008,6.41891,6.41891,0,0,0,.0647-.885V53.30566h-3.50708v1.81519a6.40163,6.40163,0,0,0,.07446.96436,3.19064,3.19064,0,0,0,.26611.89722,1.68884,1.68884,0,0,0,.55176.66162A1.58268,1.58268,0,0,0,294.98413,57.90161Z" fill="#231f20"></path>
  <path d="M292.13745,81.87134a8.04513,8.04513,0,0,1-3.26172-.647,7.41736,7.41736,0,0,1-2.5293-1.79687,8.07776,8.07776,0,0,1-1.626-2.73315,10.54087,10.54087,0,0,1,0-6.86035,8.09874,8.09874,0,0,1,1.626-2.72217,7.40092,7.40092,0,0,1,2.5293-1.79687,8.04513,8.04513,0,0,1,3.26172-.647,7.95455,7.95455,0,0,1,3.26172.647,7.13382,7.13382,0,0,1,2.47559,1.79688A8.08453,8.08453,0,0,1,299.447,69.834a10.9153,10.9153,0,0,1,0,6.86035,8.06529,8.06529,0,0,1-1.57227,2.73315,7.1494,7.1494,0,0,1-2.47559,1.79688A7.95455,7.95455,0,0,1,292.13745,81.87134Zm0-4.08325a4.9696,4.9696,0,0,0,1.82739-.33447,4.19526,4.19526,0,0,0,2.41211-2.35474,4.72467,4.72467,0,0,0,.35034-1.84082,4.64809,4.64809,0,0,0-.35034-1.82983,4.45034,4.45034,0,0,0-.957-1.427,4.11472,4.11472,0,0,0-1.45508-.92651,5.39028,5.39028,0,0,0-3.7085.011,4.4276,4.4276,0,0,0-1.47705.92651,4.23816,4.23816,0,0,0-.9668,1.416,4.95378,4.95378,0,0,0,0,3.65967,4.26478,4.26478,0,0,0,2.44385,2.36572A5.16825,5.16825,0,0,0,292.13745,77.78809Z" fill="#231f20"></path>
  <path d="M287.749,98.52539a5.38856,5.38856,0,0,1-1.91284-1.37207A6.39146,6.39146,0,0,1,284.59351,95a9.0336,9.0336,0,0,1,0-5.61157,6.17161,6.17161,0,0,1,1.24268-2.11914,5.39618,5.39618,0,0,1,1.91284-1.33911,6.32787,6.32787,0,0,1,2.47559-.46875h9.37134v3.79395h-9.07349a3.98925,3.98925,0,0,0-1.16943.16724,2.91789,2.91789,0,0,0-.98755.5127,2.38827,2.38827,0,0,0-.69092.91553,3.81705,3.81705,0,0,0,0,2.74414,2.48071,2.48071,0,0,0,.69092.92529,2.70007,2.70007,0,0,0,.98755.51392,4.29525,4.29525,0,0,0,1.16943.15625h9.07349v3.8147h-9.37134A6.20123,6.20123,0,0,1,287.749,98.52539Z" fill="#231f20"></path>
  <path d="M284.55078,113.4729l9.83887-6.35986v-.06714l-9.83887.09033V103.4314h15.04517v4.35181l-9.81812,6.33667v.06714l9.81812-.09033v3.70483H284.55078Z" fill="#231f20"></path>
  <path d="M292.11548,137.11182a7.12392,7.12392,0,0,1-3.41064-.769,6.96779,6.96779,0,0,1-2.3584-2.03125,8.62642,8.62642,0,0,1-1.35986-2.84424,12.06235,12.06235,0,0,1-.43579-3.21289v-5.89111h15.04517v5.71289a14.79726,14.79726,0,0,1-.37231,3.302,8.50093,8.50093,0,0,1-1.23169,2.90039,6.40626,6.40626,0,0,1-2.30591,2.05322A7.44347,7.44347,0,0,1,292.11548,137.11182Zm0-3.97095a4.55987,4.55987,0,0,0,2.11426-.43579,3.59567,3.59567,0,0,0,1.33911-1.15967,4.74608,4.74608,0,0,0,.71167-1.65161,8.50353,8.50353,0,0,0,.2124-1.908v-1.89575h-8.79761v1.80664a8.58568,8.58568,0,0,0,.22339,1.9751,4.7713,4.7713,0,0,0,.73364,1.67358,3.66293,3.66293,0,0,0,1.35986,1.15967A4.57459,4.57459,0,0,0,292.11548,133.14087Z" fill="#231f20"></path>
  <path d="M284.81689,211.87256a8.81116,8.81116,0,0,1-.67017-3.54736,9.6794,9.6794,0,0,1,.57373-3.38013,8.03238,8.03238,0,0,1,1.626-2.68921,7.5142,7.5142,0,0,1,2.51831-1.78467,8.42732,8.42732,0,0,1,6.50269.011,7.29788,7.29788,0,0,1,2.49634,1.81885,8.12874,8.12874,0,0,1,1.58325,2.72217,10.2053,10.2053,0,0,1-.011,6.66016,6.33491,6.33491,0,0,1-1.64673,2.62207l-2.4646-2.58789a3.196,3.196,0,0,0,1.04126-1.40625,4.88161,4.88161,0,0,0,.33936-1.78467,4.70259,4.70259,0,0,0-.35034-1.84082,4.30594,4.30594,0,0,0-.9668-1.43921,4.38818,4.38818,0,0,0-1.45508-.9375,4.92,4.92,0,0,0-1.83838-.33447,5.05612,5.05612,0,0,0-1.87012.33447,4.33449,4.33449,0,0,0-1.4563.92651,4.15987,4.15987,0,0,0-.94482,1.416,4.69791,4.69791,0,0,0-.34058,1.80786,4.38718,4.38718,0,0,0,.4248,1.98608,3.80739,3.80739,0,0,0,1.106,1.36108l-2.38037,2.655A7.49579,7.49579,0,0,1,284.81689,211.87256Z" fill="#231f20"></path>
  <path d="M292.13745,233.38379a8.04513,8.04513,0,0,1-3.26172-.647,7.41736,7.41736,0,0,1-2.5293-1.79687,8.07776,8.07776,0,0,1-1.626-2.73315,10.54087,10.54087,0,0,1,0-6.86035,8.09874,8.09874,0,0,1,1.626-2.72217,7.40092,7.40092,0,0,1,2.5293-1.79687,8.04513,8.04513,0,0,1,3.26172-.647,7.95455,7.95455,0,0,1,3.26172.647,7.13382,7.13382,0,0,1,2.47559,1.79688,8.08453,8.08453,0,0,1,1.57227,2.72217,10.9153,10.9153,0,0,1,0,6.86035,8.06529,8.06529,0,0,1-1.57227,2.73315,7.1494,7.1494,0,0,1-2.47559,1.79688A7.95455,7.95455,0,0,1,292.13745,233.38379Zm0-4.08325a4.9696,4.9696,0,0,0,1.82739-.33447,4.19526,4.19526,0,0,0,2.41211-2.35474,4.72467,4.72467,0,0,0,.35034-1.84082,4.64809,4.64809,0,0,0-.35034-1.82983,4.45034,4.45034,0,0,0-.957-1.427,4.11472,4.11472,0,0,0-1.45508-.92651,5.39029,5.39029,0,0,0-3.7085.011,4.4276,4.4276,0,0,0-1.47705.92651,4.23816,4.23816,0,0,0-.9668,1.416,4.95378,4.95378,0,0,0,0,3.65967,4.26478,4.26478,0,0,0,2.44385,2.36572A5.16825,5.16825,0,0,0,292.13745,229.30054Z" fill="#231f20"></path>
  <path d="M284.55078,245.60181l5.97168-3.43018v-1.3h-5.97168v-3.72681h15.04517v6.02417a10.95212,10.95212,0,0,1-.22339,2.22046,5.94012,5.94012,0,0,1-.75439,1.94092,4.03914,4.03914,0,0,1-1.40259,1.37329,4.214,4.214,0,0,1-2.16675.5127,3.878,3.878,0,0,1-2.572-.87036,4.75992,4.75992,0,0,1-1.48682-2.40967l-6.43921,4.12842Zm10.43335-.15625a1.453,1.453,0,0,0,.8606-.2356,1.59583,1.59583,0,0,0,.51025-.60547,2.6983,2.6983,0,0,0,.24414-.83008,6.41891,6.41891,0,0,0,.0647-.885v-2.03979h-3.50708v1.81519a6.40163,6.40163,0,0,0,.07446.96436,3.19064,3.19064,0,0,0,.26611.89722,1.68884,1.68884,0,0,0,.55176.66162A1.58268,1.58268,0,0,0,294.98413,245.44556Z" fill="#231f20"></path>
  <path d="M284.55078,263.219l9.83887-6.35986V256.792l-9.83887.09033v-3.70483h15.04517v4.35181l-9.81812,6.33667v.06714l9.81812-.09033v3.70483H284.55078Z" fill="#231f20"></path>
  <path d="M284.55078,272.1106h15.04517v10.62134h-3.0603v-6.9397h-2.8479v6.56006h-2.91016v-6.56006h-3.12378v7.34131h-3.103Z" fill="#231f20"></path>
  <path d="M284.55078,295.53711l5.97168-3.43018v-1.3h-5.97168v-3.72681h15.04517v6.02417a10.95212,10.95212,0,0,1-.22339,2.22046,5.94012,5.94012,0,0,1-.75439,1.94092,4.03914,4.03914,0,0,1-1.40259,1.37329,4.214,4.214,0,0,1-2.16675.5127,3.87817,3.87817,0,0,1-2.572-.87032,4.76023,4.76023,0,0,1-1.48682-2.40971L284.55078,300Zm10.43335-.15625a1.453,1.453,0,0,0,.8606-.2356,1.59583,1.59583,0,0,0,.51025-.60547,2.6983,2.6983,0,0,0,.24414-.83008,6.41891,6.41891,0,0,0,.0647-.885v-2.03979h-3.50708v1.81519a6.40163,6.40163,0,0,0,.07446.96436,3.19064,3.19064,0,0,0,.26611.89722,1.68884,1.68884,0,0,0,.55176.66162A1.58268,1.58268,0,0,0,294.98413,295.38086Z" fill="#231f20"></path>
  <path d="M296.49292,153.77881H284.55078v-3.81592h11.94214V145.5h3.103v12.74048h-3.103Z" fill="#231f20"></path>
  <path d="M284.55078,171.16162h6.29028v-6.15845h-6.29028v-3.81592h15.04517v3.81592h-5.69458v6.15845h5.69458v3.8147H284.55078Z" fill="#231f20"></path>
  <path d="M284.55078,179.54785h15.04517v10.62134h-3.0603v-6.9397h-2.8479v6.56006h-2.91016v-6.56006h-3.12378v7.34131h-3.103Z" fill="#231f20"></path>
  <rect x="3.64865" y="33.64865" width="262.7027" height="262.7027" fill="#fdbb33"></rect>
  <path d="M270,300H0V30H270ZM7.2973,292.7027H262.7027V37.2973H7.2973Z"></path>
  <circle cx="135" cy="165" r="116.75676" fill="#804099"></circle>
  <path d="M135,285.40541A120.40541,120.40541,0,1,1,255.40541,165,120.54317,120.54317,0,0,1,135,285.40541Zm0-233.51351A113.10811,113.10811,0,1,0,248.10811,165,113.23484,113.23484,0,0,0,135,51.89189Z"></path>
  <path d="M193.37838,106.62162a58.37838,58.37838,0,0,0-116.75676,0,58.37838,58.37838,0,0,0,0,116.75676,58.37838,58.37838,0,1,0,116.75676,0,58.37838,58.37838,0,0,0,0-116.75676Z" fill="#fdbb33"></path>
  <path d="M135,285.40541a62.10488,62.10488,0,0,1-61.92726-58.47815,62.029,62.029,0,0,1,0-123.85452,62.029,62.029,0,0,1,123.85452,0,62.029,62.029,0,0,1,0,123.85452A62.10488,62.10488,0,0,1,135,285.40541ZM76.62162,110.27027a54.72973,54.72973,0,1,0,0,109.45946h3.64865v3.64865a54.72973,54.72973,0,0,0,109.45946,0v-3.64865h3.64865a54.72973,54.72973,0,0,0,0-109.45946h-3.64865v-3.64865a54.72973,54.72973,0,0,0-109.45946,0v3.64865Z"></path>
  <path d="M193.37838,121.21622a43.52825,43.52825,0,0,0-18.9581,4.3635,43.78389,43.78389,0,1,0-78.84056,0,43.78389,43.78389,0,1,0,0,78.84056,43.78389,43.78389,0,1,0,78.84056,0,43.76592,43.76592,0,1,0,18.9581-83.20407Z" fill="#005899"></path>
  <path d="M135,270.81081a47.48735,47.48735,0,0,1-47.43243-47.43243,46.69876,46.69876,0,0,1,1.74831-12.69426,46.69876,46.69876,0,0,1-12.69426,1.74831,47.43243,47.43243,0,1,1,0-94.86486,46.69876,46.69876,0,0,1,12.69426,1.74831,46.69876,46.69876,0,0,1-1.74831-12.69426,47.43243,47.43243,0,0,1,94.86486,0,46.69876,46.69876,0,0,1-1.74831,12.69426,46.69876,46.69876,0,0,1,12.69426-1.74831,47.43243,47.43243,0,1,1,0,94.86486,46.69876,46.69876,0,0,1-12.69426-1.74831,46.69876,46.69876,0,0,1,1.74831,12.69426A47.48735,47.48735,0,0,1,135,270.81081ZM93.99546,201.13255l4.872,4.872a39.727,39.727,0,0,0-4.00259,17.37384,40.13514,40.13514,0,0,0,80.27027,0,39.727,39.727,0,0,0-4.00259-17.37384l4.872-4.872a39.727,39.727,0,0,0,17.37384,4.00259,40.13514,40.13514,0,0,0,0-80.27027,39.727,39.727,0,0,0-17.37384,4.00259l-4.872-4.872a39.727,39.727,0,0,0,4.00259-17.37384,40.13514,40.13514,0,0,0-80.27027,0,39.727,39.727,0,0,0,4.00259,17.37384l-4.872,4.872a39.727,39.727,0,0,0-17.37384-4.00259,40.13514,40.13514,0,1,0,0,80.27027A39.727,39.727,0,0,0,93.99546,201.13255Z"></path>
  <polygon points="68.609 190.541 135 84.316 201.391 190.541 68.609 190.541" fill="#008445"></polygon>
  <path d="M135,91.201l59.80682,95.69092H75.19318L135,91.201m0-13.76854L62.027,194.18919H207.973L135,77.43243Z"></path>
  <rect x="131.35135" y="150.40541" width="7.2973" height="102.16216" fill="#fdbb33"></rect>
  <rect x="113.10811" y="168.64865" width="43.78378" height="7.2973" fill="#fdbb33"></rect>
  <path d="M138.64865,130.62006a7.97784,7.97784,0,0,1,5.473-7.2973c-3.64865-3.64865-7.2973-1.82432-9.12162,0-1.82432-1.82432-5.473-3.64865-9.12162,0a7.97784,7.97784,0,0,1,5.473,7.2973c-3.64865-3.64865-10.94595-3.64865-16.41892,0,7.2973,2.6728,5.473,14.59459,16.41892,9.12162A6.48072,6.48072,0,0,0,135,145.21466a6.48072,6.48072,0,0,0,3.64865-5.473c10.94595,5.473,9.12162-6.44883,16.41892-9.12162C149.59459,126.97141,142.2973,126.97141,138.64865,130.62006Z" fill="#fff"></path>
  <path d="M74.84792,48.24324H18.24324v56.60468A131.87,131.87,0,0,1,74.84792,48.24324Z" fill="#d82f27"></path>
  <path d="M14.59459,119.86935V44.59459H89.86935l-13.3475,6.8911a129.09941,129.09941,0,0,0-55.03616,55.03616Zm7.2973-67.97746V91.31678A134.19034,134.19034,0,0,1,61.31678,51.89189Z"></path>
  <path d="M195.15208,48.24324h56.60468v56.60468A131.87,131.87,0,0,0,195.15208,48.24324Z" fill="#d82f27"></path>
  <path d="M255.40541,119.86935l-6.8911-13.3475a129.09941,129.09941,0,0,0-55.03616-55.03616l-13.3475-6.8911h75.27476ZM208.68322,51.89189a134.19034,134.19034,0,0,1,39.42488,39.42488V51.89189Z"></path>
  <path d="M74.84792,281.75676H18.24324V225.15208A131.87,131.87,0,0,0,74.84792,281.75676Z" fill="#d82f27"></path>
  <path d="M89.86935,285.40541H14.59459V210.13065l6.8911,13.3475a129.09941,129.09941,0,0,0,55.03616,55.03616Zm-67.97746-7.2973H61.31678a134.19034,134.19034,0,0,1-39.42488-39.42488Z"></path>
  <path d="M195.15208,281.75676h56.60468V225.15208A131.87,131.87,0,0,1,195.15208,281.75676Z" fill="#d82f27"></path>
  <path d="M255.40541,285.40541H180.13065l13.3475-6.8911a129.09941,129.09941,0,0,0,55.03616-55.03616l6.8911-13.3475Zm-46.72218-7.2973h39.42488V238.68322A134.19034,134.19034,0,0,1,208.68322,278.10811Z"></path>
</svg>
